<?xml version="1.0" encoding="UTF-8"?>
<!-- Generator: visioncortex VTracer 0.6.3 -->
<svg version="1.1" xmlns="http://www.w3.org/2000/svg" width="1280" height="1280">
<path d="M0 0 C0.9 -0 1.81 -0.01 2.74 -0.01 C5.65 -0.02 8.56 -0.02 11.46 -0.02 C12.95 -0.02 12.95 -0.02 14.46 -0.02 C28.16 -0.01 41.67 0.31 55.29 1.92 C58.47 2.29 61.65 2.54 64.84 2.79 C65.75 2.87 66.65 2.94 67.59 3.02 C68.19 3.07 68.78 3.12 69.4 3.17 C69.4 3.5 69.4 3.83 69.4 4.17 C70.15 4.28 70.91 4.4 71.68 4.52 C75.07 5.04 78.45 5.57 81.84 6.11 C83.02 6.29 84.21 6.47 85.43 6.66 C86.55 6.84 87.68 7.01 88.84 7.2 C89.88 7.36 90.92 7.52 91.99 7.69 C94.4 8.17 94.4 8.17 95.4 9.17 C98.56 9.67 101.73 10.07 104.91 10.47 C108.72 11.23 111.85 12.62 115.4 14.17 C118.01 14.87 120.59 15.51 123.21 16.11 C128.81 17.43 134.07 19.02 139.37 21.3 C141.57 22.27 141.57 22.27 144.59 23.23 C147.4 24.17 147.4 24.17 150.96 25.73 C153.85 26.94 156.33 27.7 159.4 28.17 C159.4 28.83 159.4 29.49 159.4 30.17 C160.36 30.29 160.36 30.29 161.34 30.42 C167.71 31.98 173.59 35.2 179.4 38.17 C180.58 38.75 181.75 39.32 182.96 39.92 C193.4 45.14 203.72 50.65 213.4 57.17 C214.21 57.64 215.01 58.12 215.84 58.61 C220.08 61.19 224.07 64.07 227.9 67.23 C229.9 68.77 231.72 69.96 233.9 71.17 C241.51 75.39 241.51 75.39 243.4 79.17 C244.02 79.31 244.65 79.44 245.29 79.59 C248.51 80.47 249.62 82.68 251.55 85.28 C253.42 87.38 253.42 87.38 256.48 88.77 C261.4 91.54 265.12 95.46 269.07 99.44 C269.88 100.24 270.68 101.04 271.51 101.87 C273.2 103.56 274.89 105.25 276.57 106.95 C279.15 109.54 281.74 112.11 284.33 114.68 C285.97 116.33 287.62 117.98 289.26 119.63 C290.42 120.78 290.42 120.78 291.6 121.95 C295.42 125.82 298.19 129.13 300.4 134.17 C302.74 136.63 305.13 138.92 307.64 141.2 C308.96 142.45 310.19 143.81 311.4 145.17 C311.4 146.49 311.4 147.81 311.4 149.17 C312.3 149.51 312.3 149.51 313.21 149.86 C315.99 151.52 316.84 153.37 318.4 156.17 C319.38 157.19 320.38 158.19 321.4 159.17 C323.4 162.17 323.4 162.17 323.4 166.17 C324.36 166.54 324.36 166.54 325.34 166.92 C327.4 168.17 327.4 168.17 328.03 170.23 C328.21 171.19 328.21 171.19 328.4 172.17 C329.06 172.5 329.72 172.83 330.4 173.17 C333.11 176.19 333.4 176.9 333.4 181.17 C334.39 181.5 335.38 181.83 336.4 182.17 C339.4 188.28 339.4 188.28 339.4 191.17 C340.39 191.83 341.38 192.49 342.4 193.17 C343.45 195.14 344.45 197.14 345.4 199.17 C345.96 200.01 346.52 200.86 347.09 201.73 C348.56 204.46 348.66 206.12 348.4 209.17 C349.39 209.5 350.38 209.83 351.4 210.17 C354.49 215.13 355.91 220.41 356.4 226.17 C357.06 226.17 357.72 226.17 358.4 226.17 C358.4 227.82 358.4 229.47 358.4 231.17 C359.39 231.5 360.38 231.83 361.4 232.17 C361.48 233.01 361.57 233.86 361.65 234.73 C362.38 238.07 363.58 240.16 365.36 243.04 C367.14 246.66 367.84 250.56 368.69 254.5 C369.3 257.37 369.3 257.37 371.4 260.17 C373.37 265.64 373.64 270.45 373.4 276.17 C374.39 276.5 375.38 276.83 376.4 277.17 C376.38 277.95 376.36 278.74 376.34 279.54 C376.22 282.15 376.22 282.15 377.4 284.17 C377.07 284.83 376.74 285.49 376.4 286.17 C377.06 286.17 377.72 286.17 378.4 286.17 C378.4 289.47 378.4 292.77 378.4 296.17 C379.06 296.17 379.72 296.17 380.4 296.17 C381.86 299.08 381.37 301.77 381.24 304.98 C381.24 307.46 381.24 307.46 383.4 310.17 C383.78 312.61 383.78 312.61 383.96 315.29 C383.95 318.54 383.95 318.54 385.4 321.17 C386.94 332.06 386.5 343.2 386.4 354.17 C387.06 354.17 387.72 354.17 388.4 354.17 C388.4 378.26 388.4 402.35 388.4 427.17 C392.36 427.17 396.32 427.17 400.4 427.17 C404.14 427.76 407.68 428.41 411.34 429.29 C412.3 429.52 413.25 429.74 414.24 429.98 C421.82 431.85 428.52 434.46 435.4 438.17 C436.56 438.68 437.71 439.18 438.9 439.71 C449.04 444.42 456.52 451.61 464.34 459.42 C464.88 459.96 465.43 460.49 465.98 461.05 C467.54 462.6 469.08 464.17 470.62 465.75 C471.52 466.67 472.41 467.59 473.34 468.54 C475.45 471.23 476.09 472.81 476.4 476.17 C477.06 476.17 477.72 476.17 478.4 476.17 C479.24 477.6 480.08 479.04 480.9 480.48 C481.37 481.28 481.83 482.08 482.31 482.91 C483.4 485.17 483.4 485.17 483.4 488.17 C484.06 488.17 484.72 488.17 485.4 488.17 C485.73 490.81 486.06 493.45 486.4 496.17 C487.06 496.17 487.72 496.17 488.4 496.17 C492.15 505.55 493.7 513.97 493.66 524.08 C493.66 525.68 493.66 525.68 493.67 527.32 C493.67 530.91 493.67 534.49 493.66 538.08 C493.67 540.68 493.67 543.27 493.67 545.87 C493.68 551.52 493.68 557.17 493.68 562.81 C493.68 571.21 493.68 579.61 493.69 588 C493.71 603.88 493.71 619.75 493.7 635.62 C493.7 647.88 493.7 660.13 493.71 672.39 C493.71 674.15 493.71 675.91 493.71 677.67 C493.71 680.33 493.71 682.98 493.71 685.64 C493.72 710.31 493.73 734.98 493.72 759.66 C493.72 760.59 493.72 761.52 493.72 762.48 C493.72 767.19 493.72 771.91 493.72 776.62 C493.72 777.56 493.72 778.49 493.72 779.46 C493.72 781.35 493.72 783.25 493.72 785.14 C493.71 814.6 493.72 844.06 493.74 873.52 C493.76 906.62 493.77 939.72 493.77 972.82 C493.77 976.35 493.77 979.88 493.76 983.41 C493.76 984.28 493.76 985.15 493.76 986.04 C493.76 999.16 493.77 1012.28 493.78 1025.4 C493.79 1040.32 493.79 1055.24 493.78 1070.16 C493.78 1078.5 493.78 1086.85 493.79 1095.2 C493.8 1101.43 493.79 1107.67 493.78 1113.9 C493.78 1116.42 493.78 1118.94 493.79 1121.46 C493.87 1149.97 493.87 1149.97 488.4 1160.17 C487.74 1160.17 487.08 1160.17 486.4 1160.17 C486.36 1161.3 486.32 1162.44 486.28 1163.61 C485.72 1168.34 483.56 1171.41 480.78 1175.19 C479.23 1177.22 479.23 1177.22 478.4 1180.17 C477.74 1180.17 477.08 1180.17 476.4 1180.17 C476.31 1181.24 476.31 1181.24 476.22 1182.33 C475.12 1186.14 473.2 1187.84 470.38 1190.62 C469.88 1191.12 469.37 1191.61 468.86 1192.13 C467.26 1193.71 465.64 1195.28 464.03 1196.86 C462.95 1197.92 461.87 1198.99 460.79 1200.06 C450.55 1210.17 450.55 1210.17 446.4 1210.17 C446.4 1210.83 446.4 1211.49 446.4 1212.17 C445.47 1212.62 444.55 1213.08 443.59 1213.54 C440.36 1215.11 440.36 1215.11 437.4 1217.17 C436.41 1217.17 435.42 1217.17 434.4 1217.17 C434.4 1217.83 434.4 1218.49 434.4 1219.17 C431.76 1219.5 429.12 1219.83 426.4 1220.17 C426.4 1220.83 426.4 1221.49 426.4 1222.17 C424.75 1222.17 423.1 1222.17 421.4 1222.17 C421.4 1222.83 421.4 1223.49 421.4 1224.17 C420.55 1224.37 419.69 1224.58 418.81 1224.79 C417.71 1225.06 416.6 1225.33 415.46 1225.61 C413.81 1226.01 413.81 1226.01 412.12 1226.41 C409.51 1226.9 409.51 1226.9 408.4 1228.17 C406.68 1228.27 404.95 1228.29 403.23 1228.29 C402.1 1228.3 400.97 1228.3 399.8 1228.3 C398.54 1228.3 397.28 1228.3 395.98 1228.3 C394.64 1228.3 393.29 1228.3 391.95 1228.3 C388.22 1228.31 384.49 1228.31 380.77 1228.3 C376.72 1228.3 372.68 1228.31 368.64 1228.31 C361.54 1228.31 354.45 1228.32 347.35 1228.31 C336.8 1228.31 326.25 1228.32 315.7 1228.32 C295.76 1228.33 275.82 1228.33 255.88 1228.34 C240.49 1228.34 225.1 1228.34 209.7 1228.34 C205.28 1228.34 200.86 1228.34 196.43 1228.34 C194.78 1228.34 194.78 1228.34 193.1 1228.34 C162.15 1228.35 131.2 1228.35 100.25 1228.35 C99.08 1228.35 97.91 1228.35 96.71 1228.35 C90.79 1228.35 84.87 1228.35 78.95 1228.35 C77.77 1228.35 76.6 1228.35 75.39 1228.35 C73.01 1228.35 70.63 1228.35 68.25 1228.35 C31.25 1228.35 -5.75 1228.36 -42.76 1228.37 C-84.29 1228.39 -125.82 1228.4 -167.36 1228.4 C-171.78 1228.4 -176.21 1228.4 -180.63 1228.4 C-181.72 1228.4 -182.81 1228.4 -183.93 1228.4 C-201.5 1228.4 -219.08 1228.4 -236.65 1228.41 C-254.29 1228.42 -271.93 1228.42 -289.58 1228.41 C-300.07 1228.41 -310.57 1228.41 -321.06 1228.42 C-328.06 1228.43 -335.06 1228.43 -342.06 1228.42 C-346.06 1228.42 -350.05 1228.42 -354.05 1228.42 C-357.68 1228.43 -361.31 1228.43 -364.93 1228.42 C-366.87 1228.42 -368.8 1228.42 -370.73 1228.43 C-372.44 1228.42 -372.44 1228.42 -374.17 1228.42 C-375.16 1228.42 -376.14 1228.42 -377.15 1228.42 C-379.6 1228.17 -379.6 1228.17 -382.6 1226.17 C-384.31 1225.73 -386.04 1225.36 -387.79 1225.04 C-388.69 1224.88 -389.59 1224.71 -390.52 1224.54 C-391.2 1224.41 -391.89 1224.29 -392.6 1224.17 C-392.6 1223.51 -392.6 1222.85 -392.6 1222.17 C-394.25 1222.17 -395.9 1222.17 -397.6 1222.17 C-397.6 1221.51 -397.6 1220.85 -397.6 1220.17 C-398.73 1220.13 -399.87 1220.09 -401.04 1220.04 C-405.77 1219.49 -408.84 1217.33 -412.62 1214.54 C-414.65 1212.99 -414.65 1212.99 -417.6 1212.17 C-417.93 1211.51 -418.26 1210.85 -418.6 1210.17 C-419.9 1209.58 -419.9 1209.58 -421.22 1208.98 C-424.95 1206.98 -427.25 1204.68 -430.08 1201.59 C-431.49 1199.94 -431.49 1199.94 -433.6 1200.17 C-434.03 1199.43 -434.46 1198.68 -434.91 1197.92 C-436.43 1195.08 -436.43 1195.08 -438.91 1193.36 C-445.43 1188.05 -449.44 1180.35 -453.6 1173.17 C-454.25 1172.12 -454.25 1172.12 -454.91 1171.06 C-459.81 1162.92 -464.11 1152.77 -463.6 1143.17 C-464.26 1143.17 -464.92 1143.17 -465.6 1143.17 C-466.44 1136.58 -466.74 1130.17 -466.72 1123.53 C-466.72 1122.49 -466.73 1121.45 -466.73 1120.38 C-466.73 1116.89 -466.73 1113.41 -466.72 1109.92 C-466.73 1107.39 -466.73 1104.87 -466.73 1102.34 C-466.73 1096.85 -466.73 1091.37 -466.73 1085.88 C-466.73 1077.71 -466.73 1069.55 -466.73 1061.39 C-466.74 1046.81 -466.74 1032.23 -466.73 1017.65 C-466.73 1004.89 -466.73 992.13 -466.73 979.37 C-466.73 978.52 -466.73 977.68 -466.73 976.8 C-466.73 973.37 -466.73 969.93 -466.73 966.5 C-466.74 934.27 -466.73 902.03 -466.73 869.8 C-466.72 841.17 -466.72 812.54 -466.73 783.9 C-466.73 751.73 -466.74 719.56 -466.73 687.39 C-466.73 683.96 -466.73 680.53 -466.73 677.1 C-466.73 676.26 -466.73 675.41 -466.73 674.54 C-466.73 661.79 -466.73 649.04 -466.73 636.29 C-466.74 621.79 -466.74 607.29 -466.73 592.79 C-466.73 584.68 -466.73 576.56 -466.73 568.45 C-466.73 562.39 -466.73 556.33 -466.73 550.28 C-466.73 547.82 -466.73 545.37 -466.73 542.92 C-466.73 539.59 -466.73 536.26 -466.72 532.93 C-466.73 531.98 -466.73 531.03 -466.73 530.04 C-466.71 524.03 -466.31 518.14 -465.6 512.17 C-465.27 512.17 -464.94 512.17 -464.6 512.17 C-464.27 509.53 -463.94 506.89 -463.6 504.17 C-462.94 504.17 -462.28 504.17 -461.6 504.17 C-461.66 503.53 -461.72 502.89 -461.79 502.23 C-461.45 496.74 -459.64 491.73 -456.6 487.17 C-454.26 483.23 -452.17 479.48 -450.6 475.17 C-449.94 475.17 -449.28 475.17 -448.6 475.17 C-448.27 474.18 -447.94 473.19 -447.6 472.17 C-446.07 468.44 -443.76 466.08 -440.91 463.25 C-439.52 461.87 -439.52 461.87 -438.1 460.45 C-437.62 459.97 -437.14 459.5 -436.64 459 C-435.16 457.55 -433.7 456.08 -432.23 454.61 C-422.72 445.17 -422.72 445.17 -418.6 445.17 C-418.6 444.51 -418.6 443.85 -418.6 443.17 C-417.55 442.77 -417.55 442.77 -416.47 442.36 C-410.85 440.06 -410.85 440.06 -405.84 436.71 C-402.97 434.74 -400.18 433.95 -396.85 432.98 C-395.68 432.64 -394.51 432.29 -393.3 431.94 C-392.41 431.68 -391.52 431.43 -390.6 431.17 C-390.6 430.84 -390.6 430.51 -390.6 430.17 C-388.29 430.17 -385.98 430.17 -383.6 430.17 C-383.27 429.51 -382.94 428.85 -382.6 428.17 C-382.27 428.5 -381.94 428.83 -381.6 429.17 C-381.6 428.84 -381.6 428.51 -381.6 428.17 C-380.16 427.99 -378.72 427.83 -377.29 427.67 C-376.48 427.58 -375.68 427.48 -374.86 427.39 C-371.85 427.19 -368.9 427.15 -365.89 427.15 C-364.9 427.16 -363.91 427.16 -362.89 427.16 C-362.13 427.16 -361.38 427.17 -360.6 427.17 C-360.6 426.22 -360.6 425.27 -360.6 424.29 C-360.62 415.36 -360.64 406.42 -360.65 397.49 C-360.65 392.9 -360.66 388.31 -360.67 383.71 C-360.68 379.29 -360.69 374.86 -360.69 370.43 C-360.69 368.74 -360.7 367.04 -360.7 365.35 C-360.71 362.99 -360.71 360.62 -360.71 358.26 C-360.72 357.2 -360.72 357.2 -360.72 356.12 C-360.71 351.28 -360.71 351.28 -359.6 350.17 C-359.45 348.52 -359.37 346.87 -359.32 345.21 C-359.28 344.2 -359.24 343.19 -359.2 342.15 C-359.17 341.08 -359.13 340.02 -359.1 338.92 C-359.03 336.83 -358.96 334.74 -358.88 332.65 C-358.85 331.72 -358.82 330.79 -358.79 329.83 C-358.6 327.2 -358.17 324.74 -357.6 322.17 C-357.09 319.38 -356.59 316.58 -356.1 313.79 C-355.8 312.22 -355.46 310.65 -355.06 309.1 C-354.55 306.99 -354.35 304.96 -354.16 302.79 C-353.77 299.01 -352.88 295.76 -351.6 292.17 C-351.23 290.17 -350.88 288.18 -350.6 286.17 C-349.94 286.17 -349.28 286.17 -348.6 286.17 C-348.78 285.6 -348.96 285.02 -349.14 284.43 C-350.3 278.66 -347.42 272.39 -345.32 267.07 C-344.65 265.3 -344.12 263.48 -343.6 261.67 C-342.86 259.08 -342.06 256.67 -341.1 254.17 C-339.71 250.55 -338.63 246.9 -337.6 243.17 C-336.93 241.17 -336.26 239.17 -335.6 237.17 C-335.6 236.84 -335.6 236.51 -335.6 236.17 C-334.94 235.84 -334.28 235.51 -333.6 235.17 C-333.24 233.51 -332.92 231.84 -332.6 230.17 C-332.15 228.74 -331.67 227.33 -331.16 225.92 C-330.79 224.89 -330.79 224.89 -330.41 223.84 C-329.6 222.17 -329.6 222.17 -327.6 221.17 C-327.22 219.85 -326.9 218.51 -326.6 217.17 C-325.98 215.68 -325.33 214.2 -324.66 212.73 C-323.23 209.57 -321.85 206.41 -320.6 203.17 C-319.94 203.17 -319.28 203.17 -318.6 203.17 C-318.52 202.51 -318.43 201.85 -318.35 201.17 C-317.14 196.35 -315.13 191.7 -311.6 188.17 C-309.22 184.71 -307.03 181.26 -305.47 177.36 C-304.52 174.97 -303.39 173.96 -301.6 172.17 C-301.27 171.34 -300.94 170.52 -300.6 169.67 C-299.57 167.09 -298.51 166.09 -296.6 164.17 C-296.45 163.51 -296.31 162.85 -296.16 162.17 C-295.4 159.45 -293.81 158.83 -291.6 157.17 C-290.8 155.07 -290.8 155.07 -290.6 153.17 C-289.94 153.17 -289.28 153.17 -288.6 153.17 C-288.33 152.53 -288.06 151.89 -287.79 151.23 C-286.6 149.17 -286.6 149.17 -283.6 148.17 C-283.54 147.46 -283.49 146.74 -283.44 146.01 C-282.32 142.23 -280 140.24 -277.16 137.67 C-273.25 134.21 -273.25 134.21 -270.67 129.76 C-269.46 126.85 -268.09 125.28 -265.87 123.05 C-265.11 122.28 -264.34 121.5 -263.55 120.71 C-262.73 119.89 -261.9 119.06 -261.05 118.22 C-260.2 117.36 -259.34 116.51 -258.47 115.63 C-256.67 113.83 -254.87 112.03 -253.06 110.24 C-250.3 107.49 -247.55 104.73 -244.8 101.96 C-243.05 100.21 -241.3 98.47 -239.55 96.72 C-238.73 95.89 -237.9 95.06 -237.06 94.21 C-236.29 93.45 -235.51 92.68 -234.71 91.9 C-234.04 91.22 -233.36 90.55 -232.67 89.86 C-230.41 88.01 -228.31 87.18 -225.6 86.17 C-223.49 84.35 -223.49 84.35 -221.6 82.23 C-218.76 79.27 -216.2 77.16 -212.6 75.17 C-211.61 74.34 -210.62 73.52 -209.6 72.67 C-207.01 70.51 -204.5 68.86 -201.6 67.17 C-200.94 66.51 -200.28 65.85 -199.6 65.17 C-198.28 65.17 -196.96 65.17 -195.6 65.17 C-195.27 64.18 -194.94 63.19 -194.6 62.17 C-193.94 62.17 -193.28 62.17 -192.6 62.17 C-192.6 61.51 -192.6 60.85 -192.6 60.17 C-191.83 59.9 -191.07 59.63 -190.29 59.36 C-187.59 58.37 -187.59 58.37 -186.04 56.54 C-184.6 55.17 -184.6 55.17 -180.6 55.17 C-180.6 54.51 -180.6 53.85 -180.6 53.17 C-179.65 52.71 -178.7 52.26 -177.72 51.79 C-174.59 50.37 -174.59 50.37 -172.6 48.17 C-169.65 46.85 -166.75 45.87 -163.6 45.17 C-163.6 44.51 -163.6 43.85 -163.6 43.17 C-156.97 40.17 -156.97 40.17 -153.6 40.17 C-153.6 39.51 -153.6 38.85 -153.6 38.17 C-152.95 37.91 -152.29 37.66 -151.62 37.4 C-147.75 35.87 -143.95 34.34 -140.22 32.48 C-137.97 31.35 -136.06 30.64 -133.6 30.17 C-133.6 29.51 -133.6 28.85 -133.6 28.17 C-132.48 28.04 -131.37 27.92 -130.22 27.79 C-126.57 27.52 -126.57 27.52 -124.6 25.17 C-123.28 25.17 -121.96 25.17 -120.6 25.17 C-120.27 24.51 -119.94 23.85 -119.6 23.17 C-117.62 22.44 -115.62 21.81 -113.6 21.23 C-111.84 20.71 -111.84 20.71 -110.05 20.18 C-108.34 19.68 -108.34 19.68 -106.6 19.17 C-101.19 17.85 -101.19 17.85 -96.6 15.17 C-95.42 15.04 -94.25 14.92 -93.04 14.79 C-89.88 14.45 -87.28 13.75 -84.35 12.54 C-80.65 11.19 -80.05 11.02 -76.6 12.17 C-76.6 11.51 -76.6 10.85 -76.6 10.17 C-74.55 9.94 -72.5 9.71 -70.45 9.48 C-68.59 9.35 -68.59 9.35 -67.6 8.17 C-65.27 7.79 -62.94 7.46 -60.6 7.17 C-59.58 7.04 -59.58 7.04 -58.54 6.9 C-54.78 6.42 -51.01 6.01 -47.22 5.67 C-46.03 5.5 -44.83 5.34 -43.6 5.17 C-43.27 4.51 -42.94 3.85 -42.6 3.17 C-42.6 3.83 -42.6 4.49 -42.6 5.17 C-42.03 4.85 -41.47 4.53 -40.89 4.21 C-38.44 3.1 -36.57 2.79 -33.89 2.57 C-33 2.49 -32.1 2.41 -31.17 2.33 C-30.24 2.26 -29.31 2.18 -28.35 2.11 C-26.51 1.95 -24.67 1.79 -22.83 1.63 C-21.61 1.53 -21.61 1.53 -20.37 1.43 C-18.2 1.23 -16.03 0.95 -13.87 0.65 C-9.24 0.06 -4.66 0.01 0 0 Z M308.4 144.17 C309.4 146.17 309.4 146.17 309.4 146.17 Z M-10.6 160.17 C-10.6 160.5 -10.6 160.83 -10.6 161.17 C-6.31 161.17 -2.02 161.17 2.4 161.17 C2.4 160.84 2.4 160.51 2.4 160.17 C-1.89 160.17 -6.18 160.17 -10.6 160.17 Z M7.4 160.17 C7.4 160.5 7.4 160.83 7.4 161.17 C10.7 161.17 14 161.17 17.4 161.17 C17.4 160.84 17.4 160.51 17.4 160.17 C14.1 160.17 10.8 160.17 7.4 160.17 Z M22.4 160.17 C22.4 160.5 22.4 160.83 22.4 161.17 C27.35 161.17 32.3 161.17 37.4 161.17 C37.4 160.84 37.4 160.51 37.4 160.17 C32.45 160.17 27.5 160.17 22.4 160.17 Z M-15.6 164.17 C-17.84 164.49 -17.84 164.49 -19.9 164.58 C-20.65 164.62 -21.4 164.66 -22.17 164.7 C-23.31 164.75 -23.31 164.75 -24.47 164.79 C-25.26 164.83 -26.04 164.87 -26.85 164.91 C-28.76 165 -30.68 165.09 -32.6 165.17 C-32.6 165.5 -32.6 165.83 -32.6 166.17 C-33.55 166.29 -34.5 166.42 -35.47 166.54 C-38.68 166.88 -38.68 166.88 -40.6 169.17 C-43.38 169.88 -45.72 170.17 -48.6 170.17 C-51.79 170.75 -54.14 171.95 -56.91 173.61 C-60.73 175.79 -64.31 177.1 -68.6 178.17 C-70.27 178.81 -71.95 179.47 -73.6 180.17 C-73.6 180.83 -73.6 181.49 -73.6 182.17 C-75.25 182.17 -76.9 182.17 -78.6 182.17 C-78.93 182.83 -79.26 183.49 -79.6 184.17 C-81.24 184.38 -81.24 184.38 -82.91 184.61 C-86.54 185.16 -87.96 185.74 -90.6 188.17 C-90.27 188.5 -89.94 188.83 -89.6 189.17 C-90.19 189.31 -90.78 189.46 -91.39 189.61 C-97.33 191.3 -99.75 193.21 -103.6 198.17 C-105.38 199.3 -105.38 199.3 -107.29 200.29 C-110.48 202.1 -111.51 202.77 -112.6 206.17 C-114.58 205.67 -114.58 205.67 -116.6 205.17 C-116.6 205.83 -116.6 206.49 -116.6 207.17 C-117.26 207.17 -117.92 207.17 -118.6 207.17 C-120.13 208.72 -120.13 208.72 -121.72 210.73 C-125.33 215 -129.31 218.6 -133.6 222.17 C-134.26 221.51 -134.92 220.85 -135.6 220.17 C-135.6 220.83 -135.6 221.49 -135.6 222.17 C-136.59 222.5 -137.58 222.83 -138.6 223.17 C-138.53 223.91 -138.46 224.66 -138.38 225.43 C-138.65 228.87 -139.55 229.68 -142.03 232.02 C-142.74 232.7 -143.45 233.39 -144.19 234.1 C-144.94 234.8 -145.7 235.51 -146.47 236.23 C-147.95 237.63 -149.43 239.04 -150.9 240.45 C-151.89 241.38 -151.89 241.38 -152.9 242.32 C-154.62 244.19 -155.52 245.89 -156.6 248.17 C-157.26 248.83 -157.92 249.49 -158.6 250.17 C-159.59 249.67 -159.59 249.67 -160.6 249.17 C-160.8 250.22 -161.01 251.27 -161.22 252.36 C-162.08 255.46 -163.11 256.9 -165.66 258.86 C-168.7 260.84 -168.7 260.84 -169.47 263.48 C-169.51 264.04 -169.56 264.59 -169.6 265.17 C-168.94 265.17 -168.28 265.17 -167.6 265.17 C-169.35 269.04 -169.35 269.04 -171.6 270.17 C-173.94 274.96 -173.94 274.96 -174.6 280.17 C-175.26 280.17 -175.92 280.17 -176.6 280.17 C-176.87 280.93 -177.13 281.69 -177.41 282.48 C-178.57 285.11 -179.62 286.19 -181.6 288.17 C-182.31 290.27 -182.31 290.27 -182.6 292.17 C-183.59 292.17 -184.58 292.17 -185.6 292.17 C-185.53 292.79 -185.45 293.42 -185.38 294.07 C-185.29 294.88 -185.19 295.7 -185.1 296.54 C-185 297.36 -184.91 298.17 -184.82 299 C-184.6 301.17 -184.6 301.17 -184.6 303.17 C-185.26 303.17 -185.92 303.17 -186.6 303.17 C-186.89 304.18 -187.18 305.19 -187.47 306.23 C-187.65 306.86 -187.84 307.5 -188.02 308.15 C-188.4 309.48 -188.78 310.82 -189.14 312.16 C-190.49 317.06 -190.49 317.06 -191.6 318.17 C-191.78 319.54 -191.92 320.92 -192.04 322.29 C-192.45 326.44 -193.41 330.17 -194.6 334.17 C-194.97 336.5 -195.31 338.83 -195.6 341.17 C-195.93 341.17 -196.26 341.17 -196.6 341.17 C-196.66 342.11 -196.72 343.05 -196.78 344.02 C-196.87 345.26 -196.95 346.51 -197.04 347.79 C-197.16 349.64 -197.16 349.64 -197.28 351.52 C-197.56 354.75 -198.06 357.97 -198.6 361.17 C-198.27 382.95 -197.94 404.73 -197.6 427.17 C-57.68 427.17 82.24 427.17 226.4 427.17 C226.4 403.41 226.4 379.65 226.4 355.17 C225.74 355.17 225.08 355.17 224.4 355.17 C224.59 354.4 224.77 353.64 224.96 352.86 C225.63 350.08 225.63 350.08 224.4 347.17 C224.2 345.36 224.04 343.55 223.9 341.73 C223.65 338.42 223.27 335.37 222.4 332.17 C222.08 330.57 221.77 328.96 221.46 327.36 C220.65 323.21 219.63 319.21 218.4 315.17 C217.74 315.17 217.08 315.17 216.4 315.17 C216.73 314.18 217.06 313.19 217.4 312.17 C216.8 309.82 216.14 307.48 215.4 305.17 C214.74 305.17 214.08 305.17 213.4 305.17 C213.46 304.3 213.52 303.43 213.58 302.54 C213.38 298.69 212.37 296.59 210.53 293.23 C208.24 288.9 206.7 284.9 205.4 280.17 C203.73 276.67 201.72 273.56 199.28 270.54 C197.39 268.15 196.39 266.04 195.4 263.17 C194.74 263.17 194.08 263.17 193.4 263.17 C193.24 262.07 193.24 262.07 193.08 260.95 C192.35 257.97 191.33 256.17 189.59 253.67 C189.05 252.89 188.5 252.1 187.94 251.3 C183.37 244.97 178.24 239 172.71 233.48 C170.4 231.17 170.4 231.17 168.59 228.79 C166.2 225.93 163.6 223.69 160.77 221.28 C157.38 218.25 154.23 215 151.08 211.72 C149.89 210.5 148.65 209.33 147.4 208.17 C146.74 208.17 146.08 208.17 145.4 208.17 C145.07 207.18 144.74 206.19 144.4 205.17 C143.08 204.48 141.74 203.82 140.4 203.17 C139.74 202.18 139.08 201.19 138.4 200.17 C136.08 199.15 133.74 198.15 131.4 197.17 C129.78 195.67 129.78 195.67 128.4 194.17 C126.75 193.14 125.08 192.14 123.4 191.17 C122.41 190.45 121.42 189.72 120.4 188.98 C117.31 187.11 115.92 186.75 112.4 187.17 C112.07 186.18 111.74 185.19 111.4 184.17 C110.41 184.17 109.42 184.17 108.4 184.17 C107.99 183.53 107.58 182.89 107.15 182.23 C104.63 179.25 102.17 179.58 98.4 179.17 C97.74 178.51 97.08 177.85 96.4 177.17 C94.83 176.69 93.26 176.22 91.68 175.8 C86.86 174.46 82.14 172.77 77.4 171.17 C75.21 170.44 73 169.78 70.78 169.17 C67.4 168.17 67.4 168.17 66.4 167.17 C64.88 167.1 63.36 167.08 61.84 167.11 C61.01 167.11 60.19 167.12 59.34 167.13 C58.38 167.15 58.38 167.15 57.4 167.17 C57.4 166.51 57.4 165.85 57.4 165.17 C51.46 164.84 45.52 164.51 39.4 164.17 C39.4 163.51 39.4 162.85 39.4 162.17 C32.53 162.12 25.67 162.08 18.8 162.06 C16.46 162.05 14.13 162.03 11.79 162.02 C8.43 161.99 5.07 161.98 1.71 161.97 C0.67 161.96 -0.37 161.95 -1.45 161.94 C-6.62 161.94 -10.72 162.24 -15.6 164.17 Z M-63.6 173.17 C-63.93 174.16 -64.26 175.15 -64.6 176.17 C-63.94 176.17 -63.28 176.17 -62.6 176.17 C-62.27 175.18 -61.94 174.19 -61.6 173.17 C-62.26 173.17 -62.92 173.17 -63.6 173.17 Z M343.4 199.17 C344.4 201.17 344.4 201.17 344.4 201.17 Z M-329.6 223.17 C-328.6 225.17 -328.6 225.17 -328.6 225.17 Z M-158.6 245.17 C-158.27 245.83 -157.94 246.49 -157.6 247.17 C-157.27 246.51 -156.94 245.85 -156.6 245.17 C-157.26 245.17 -157.92 245.17 -158.6 245.17 Z M366.4 252.17 C367.4 254.17 367.4 254.17 367.4 254.17 Z M-173.6 272.17 C-172.6 274.17 -172.6 274.17 -172.6 274.17 Z M374.4 284.17 C375.4 286.17 375.4 286.17 375.4 286.17 Z M-188.6 302.17 C-187.6 304.17 -187.6 304.17 -187.6 304.17 Z M378.4 302.17 C379.4 306.17 379.4 306.17 379.4 306.17 Z M-188.6 307.17 C-187.6 309.17 -187.6 309.17 -187.6 309.17 Z M-193.6 320.17 C-192.6 322.17 -192.6 322.17 -192.6 322.17 Z M-193.6 325.17 C-192.6 327.17 -192.6 327.17 -192.6 327.17 Z M-198.6 343.17 C-198.6 347.13 -198.6 351.09 -198.6 355.17 C-198.27 355.17 -197.94 355.17 -197.6 355.17 C-197.6 351.21 -197.6 347.25 -197.6 343.17 C-197.93 343.17 -198.26 343.17 -198.6 343.17 Z M-359.6 352.17 C-358.6 354.17 -358.6 354.17 -358.6 354.17 Z M386.4 356.17 C386.4 362.11 386.4 368.05 386.4 374.17 C386.73 374.17 387.06 374.17 387.4 374.17 C387.4 368.23 387.4 362.29 387.4 356.17 C387.07 356.17 386.74 356.17 386.4 356.17 Z M-200.6 358.17 C-199.6 360.17 -199.6 360.17 -199.6 360.17 Z M-199.6 375.17 C-199.6 392 -199.6 408.83 -199.6 426.17 C-199.27 426.17 -198.94 426.17 -198.6 426.17 C-198.6 409.34 -198.6 392.51 -198.6 375.17 C-198.93 375.17 -199.26 375.17 -199.6 375.17 Z M386.4 423.17 C387.4 426.17 387.4 426.17 387.4 426.17 Z M472.4 1182.17 C472.07 1183.16 471.74 1184.15 471.4 1185.17 C472.39 1184.84 473.38 1184.51 474.4 1184.17 C474.4 1183.51 474.4 1182.85 474.4 1182.17 C473.74 1182.17 473.08 1182.17 472.4 1182.17 Z M448.4 1205.17 C448.4 1206.16 448.4 1207.15 448.4 1208.17 C450.57 1207.33 450.57 1207.33 451.4 1205.17 C450.41 1205.17 449.42 1205.17 448.4 1205.17 Z M438.4 1212.17 C439.4 1214.17 439.4 1214.17 439.4 1214.17 Z M436.4 1213.17 C436.4 1213.83 436.4 1214.49 436.4 1215.17 C437.06 1214.84 437.72 1214.51 438.4 1214.17 C437.74 1213.84 437.08 1213.51 436.4 1213.17 Z " fill="#EE9B12" transform="translate(625.59765625,51.83203125)"/>
<path d="M0 0 C0.9 -0 1.81 -0.01 2.74 -0.01 C5.65 -0.02 8.56 -0.02 11.46 -0.02 C12.95 -0.02 12.95 -0.02 14.46 -0.02 C28.16 -0.01 41.67 0.31 55.29 1.92 C58.47 2.29 61.65 2.54 64.84 2.79 C65.75 2.87 66.65 2.94 67.59 3.02 C68.49 3.09 68.49 3.09 69.4 3.17 C69.4 3.5 69.4 3.83 69.4 4.17 C70.15 4.28 70.91 4.4 71.68 4.52 C75.07 5.04 78.45 5.57 81.84 6.11 C83.02 6.29 84.21 6.47 85.43 6.66 C86.55 6.84 87.68 7.01 88.84 7.2 C89.88 7.36 90.92 7.52 91.99 7.69 C94.4 8.17 94.4 8.17 95.4 9.17 C98.56 9.67 101.73 10.07 104.91 10.47 C108.72 11.23 111.85 12.62 115.4 14.17 C118.01 14.87 120.59 15.51 123.21 16.11 C128.81 17.43 134.07 19.02 139.37 21.3 C141.57 22.27 141.57 22.27 144.59 23.23 C147.4 24.17 147.4 24.17 150.96 25.73 C153.85 26.94 156.33 27.7 159.4 28.17 C159.4 28.83 159.4 29.49 159.4 30.17 C160.36 30.29 160.36 30.29 161.34 30.42 C167.71 31.98 173.59 35.2 179.4 38.17 C180.58 38.75 181.75 39.32 182.96 39.92 C193.4 45.14 203.72 50.65 213.4 57.17 C214.21 57.64 215.01 58.12 215.84 58.61 C220.08 61.19 224.07 64.07 227.9 67.23 C229.9 68.77 231.72 69.96 233.9 71.17 C241.51 75.39 241.51 75.39 243.4 79.17 C244.02 79.31 244.65 79.44 245.29 79.59 C248.51 80.47 249.62 82.68 251.55 85.28 C253.42 87.38 253.42 87.38 256.48 88.77 C261.4 91.54 265.12 95.46 269.07 99.44 C269.88 100.24 270.68 101.04 271.51 101.87 C273.2 103.56 274.89 105.25 276.57 106.95 C279.15 109.54 281.74 112.11 284.33 114.68 C285.97 116.33 287.62 117.98 289.26 119.63 C290.42 120.78 290.42 120.78 291.6 121.95 C295.42 125.82 298.19 129.13 300.4 134.17 C302.74 136.63 305.13 138.92 307.64 141.2 C308.96 142.45 310.19 143.81 311.4 145.17 C311.4 146.49 311.4 147.81 311.4 149.17 C312.3 149.51 312.3 149.51 313.21 149.86 C315.99 151.52 316.84 153.37 318.4 156.17 C319.38 157.19 320.38 158.19 321.4 159.17 C323.4 162.17 323.4 162.17 323.4 166.17 C324.36 166.54 324.36 166.54 325.34 166.92 C327.4 168.17 327.4 168.17 328.03 170.23 C328.21 171.19 328.21 171.19 328.4 172.17 C329.06 172.5 329.72 172.83 330.4 173.17 C333.11 176.19 333.4 176.9 333.4 181.17 C334.39 181.5 335.38 181.83 336.4 182.17 C339.4 188.28 339.4 188.28 339.4 191.17 C340.39 191.83 341.38 192.49 342.4 193.17 C343.45 195.14 344.45 197.14 345.4 199.17 C345.96 200.01 346.52 200.86 347.09 201.73 C348.56 204.46 348.66 206.12 348.4 209.17 C349.39 209.5 350.38 209.83 351.4 210.17 C354.49 215.13 355.91 220.41 356.4 226.17 C357.06 226.17 357.72 226.17 358.4 226.17 C358.4 227.82 358.4 229.47 358.4 231.17 C359.39 231.5 360.38 231.83 361.4 232.17 C361.48 233.01 361.57 233.86 361.65 234.73 C362.38 238.07 363.58 240.16 365.36 243.04 C367.14 246.66 367.84 250.56 368.69 254.5 C369.3 257.37 369.3 257.37 371.4 260.17 C373.37 265.64 373.64 270.45 373.4 276.17 C374.39 276.5 375.38 276.83 376.4 277.17 C376.38 277.95 376.36 278.74 376.34 279.54 C376.22 282.15 376.22 282.15 377.4 284.17 C377.07 284.83 376.74 285.49 376.4 286.17 C377.06 286.17 377.72 286.17 378.4 286.17 C378.4 289.47 378.4 292.77 378.4 296.17 C379.06 296.17 379.72 296.17 380.4 296.17 C381.86 299.08 381.37 301.77 381.24 304.98 C381.24 307.46 381.24 307.46 383.4 310.17 C383.78 312.61 383.78 312.61 383.96 315.29 C383.95 318.54 383.95 318.54 385.4 321.17 C386.94 332.06 386.5 343.2 386.4 354.17 C387.06 354.17 387.72 354.17 388.4 354.17 C388.6 425.8 388.6 425.8 388.08 456.85 C388.05 459.13 388.01 461.41 387.98 463.69 C387.94 466.83 387.88 469.97 387.82 473.11 C387.8 474.01 387.79 474.91 387.78 475.83 C387.39 492.28 380.91 503.01 369.2 514.29 C349.75 531.25 322.32 535.63 297.4 534.17 C272.74 531.86 249.77 520.73 233.43 502.04 C226.61 492.39 226.25 480.88 226.34 469.5 C226.34 468.38 226.35 467.26 226.35 466.11 C226.36 462.54 226.38 458.98 226.4 455.42 C226.43 450.71 226.45 446.01 226.46 441.31 C226.47 440.22 226.48 439.14 226.49 438.02 C226.49 437.01 226.5 436.01 226.5 434.98 C226.51 434.1 226.51 433.21 226.52 432.3 C226.54 430.11 226.54 430.11 225.4 428.17 C225.31 425.93 225.27 423.69 225.27 421.46 C225.27 420.77 225.27 420.08 225.27 419.37 C225.26 417.08 225.27 414.8 225.27 412.51 C225.27 410.93 225.27 409.34 225.27 407.76 C225.27 404.44 225.27 401.11 225.27 397.79 C225.28 393.53 225.27 389.26 225.27 385 C225.26 381.73 225.27 378.46 225.27 375.18 C225.27 373.61 225.27 372.04 225.27 370.47 C225.26 368.27 225.27 366.08 225.27 363.88 C225.27 362 225.27 362 225.28 360.09 C225.4 357.17 225.4 357.17 226.4 355.17 C225.74 355.17 225.08 355.17 224.4 355.17 C223.68 349.68 223.13 344.2 222.68 338.68 C222.43 336.41 221.99 334.37 221.4 332.17 C220.89 329.55 220.39 326.93 219.9 324.31 C219.61 322.2 219.61 322.2 218.4 321.17 C218.36 319.17 218.36 317.17 218.4 315.17 C217.74 315.17 217.08 315.17 216.4 315.17 C216.07 311.87 215.74 308.57 215.4 305.17 C214.74 305.17 214.08 305.17 213.4 305.17 C213.15 304.22 212.91 303.27 212.65 302.29 C211.51 298.25 209.94 294.42 208.36 290.54 C205.4 283.19 205.4 283.19 205.4 280.17 C204.74 279.84 204.08 279.51 203.4 279.17 C202.4 277.17 201.4 275.17 200.4 273.17 C199.7 272.3 199 271.44 198.28 270.54 C196.45 268.23 196 266.96 195.4 264.17 C194.74 263.84 194.08 263.51 193.4 263.17 C190.4 257.74 190.4 257.74 190.4 255.17 C189.74 254.84 189.08 254.51 188.4 254.17 C187.39 252.51 186.39 250.84 185.4 249.17 C180.64 242.88 175.64 237.02 169.4 232.17 C166.4 228.65 166.4 228.65 166.4 226.17 C165.44 225.77 165.44 225.77 164.46 225.36 C162.4 224.17 162.4 224.17 161.4 221.17 C160.07 220.5 158.74 219.83 157.4 219.17 C155.69 217.57 154.03 215.92 152.4 214.23 C149.54 211.26 146.77 208.55 143.4 206.17 C141.69 204.89 140.02 203.56 138.4 202.17 C138.4 201.51 138.4 200.85 138.4 200.17 C137.49 200.09 136.59 200 135.65 199.92 C131.9 199.05 130.95 197.96 128.4 195.17 C126.76 194.13 125.09 193.13 123.4 192.17 C122.41 191.47 121.42 190.77 120.4 190.04 C117.53 188.25 115.67 187.71 112.4 187.17 C111.74 186.51 111.08 185.85 110.4 185.17 C109.41 184.84 108.42 184.51 107.4 184.17 C107.4 183.51 107.4 182.85 107.4 182.17 C106.62 182.21 105.83 182.25 105.03 182.29 C102.4 182.17 102.4 182.17 100.4 180.17 C97.62 178.52 94.77 177.65 91.67 176.8 C88.67 175.96 85.69 175.07 82.71 174.17 C81.62 173.84 80.52 173.51 79.39 173.17 C76.9 172.33 74.73 171.36 72.4 170.17 C70.74 169.82 69.07 169.48 67.4 169.17 C67.07 168.84 66.74 168.51 66.4 168.17 C64.89 167.94 63.36 167.76 61.84 167.61 C61.01 167.52 60.19 167.44 59.34 167.35 C58.7 167.29 58.06 167.23 57.4 167.17 C57.4 166.51 57.4 165.85 57.4 165.17 C56.44 165.18 55.47 165.19 54.48 165.2 C53.22 165.21 51.95 165.22 50.65 165.23 C49.4 165.24 48.15 165.25 46.86 165.27 C44.12 165.19 41.98 165 39.4 164.17 C39.4 163.51 39.4 162.85 39.4 162.17 C32.53 162.26 25.67 162.37 18.8 162.49 C16.46 162.52 14.13 162.56 11.79 162.59 C8.43 162.64 5.07 162.69 1.71 162.75 C0.15 162.77 0.15 162.77 -1.45 162.79 C-6.58 162.89 -10.77 163.24 -15.6 165.17 C-17.88 165.44 -20.18 165.65 -22.47 165.79 C-23.63 165.87 -24.78 165.94 -25.96 166.02 C-26.83 166.07 -27.7 166.12 -28.6 166.17 C-28.6 166.5 -28.6 166.83 -28.6 167.17 C-31.9 167.17 -35.2 167.17 -38.6 167.17 C-38.93 168.16 -39.26 169.15 -39.6 170.17 C-41.3 170.38 -41.3 170.38 -43.04 170.61 C-46.41 170.78 -46.41 170.78 -47.6 172.17 C-49.6 172.21 -51.6 172.21 -53.6 172.17 C-53.6 172.83 -53.6 173.49 -53.6 174.17 C-55.08 174.57 -55.08 174.57 -56.6 174.98 C-60.05 175.96 -63.37 177.17 -66.7 178.48 C-68.6 179.17 -68.6 179.17 -70.77 179.63 C-71.68 179.9 -71.68 179.9 -72.6 180.17 C-72.93 180.83 -73.26 181.49 -73.6 182.17 C-75.25 182.17 -76.9 182.17 -78.6 182.17 C-78.93 183.16 -79.26 184.15 -79.6 185.17 C-80.34 185.27 -81.08 185.37 -81.85 185.48 C-84.86 186.23 -86.16 187.3 -88.6 189.17 C-89.82 189.71 -91.05 190.23 -92.29 190.73 C-95.67 191.78 -95.67 191.78 -96.6 194.17 C-98.24 195.2 -99.91 196.2 -101.6 197.17 C-103.32 198.32 -105.03 199.48 -106.72 200.67 C-107.57 201.26 -108.42 201.84 -109.29 202.45 C-111.59 204.04 -111.59 204.04 -113.15 205.89 C-114.6 207.17 -114.6 207.17 -118.6 207.17 C-118.82 207.72 -119.05 208.27 -119.29 208.84 C-120.98 211.85 -123.15 213.98 -125.6 216.42 C-126.93 217.76 -126.93 217.76 -128.29 219.12 C-130.6 221.17 -130.6 221.17 -132.6 221.17 C-132.93 221.83 -133.26 222.49 -133.6 223.17 C-134.26 222.84 -134.92 222.51 -135.6 222.17 C-137.8 223.99 -137.8 223.99 -138.02 226.57 C-138.7 229.64 -139.64 230.66 -141.91 232.8 C-142.9 233.76 -142.9 233.76 -143.92 234.74 C-144.62 235.4 -145.32 236.06 -146.04 236.73 C-147.41 238.04 -148.79 239.35 -150.16 240.67 C-151.07 241.54 -151.07 241.54 -152.01 242.42 C-153.66 244.23 -154.53 245.97 -155.6 248.17 C-156.93 249.17 -158.26 250.17 -159.6 251.17 C-159.93 252.16 -160.26 253.15 -160.6 254.17 C-162.6 257.17 -162.6 257.17 -164.66 258.17 C-166.95 259.06 -166.95 259.06 -167.6 262.17 C-167.27 262.5 -166.94 262.83 -166.6 263.17 C-167.59 265.48 -168.58 267.79 -169.6 270.17 C-170.26 270.17 -170.92 270.17 -171.6 270.17 C-171.72 270.89 -171.85 271.61 -171.97 272.36 C-172.59 275.13 -173.48 277.57 -174.6 280.17 C-175.26 280.17 -175.92 280.17 -176.6 280.17 C-176.72 280.89 -176.85 281.61 -176.97 282.36 C-177.59 285.13 -178.48 287.57 -179.6 290.17 C-179.93 290.17 -180.26 290.17 -180.6 290.17 C-180.93 291.82 -181.26 293.47 -181.6 295.17 C-181.93 294.18 -182.26 293.19 -182.6 292.17 C-183.59 292.17 -184.58 292.17 -185.6 292.17 C-184.94 292.5 -184.28 292.83 -183.6 293.17 C-183.47 300.92 -183.47 300.92 -184.6 303.17 C-185.26 303.17 -185.92 303.17 -186.6 303.17 C-186.56 304.1 -186.52 305.02 -186.47 305.98 C-186.6 309.17 -186.6 309.17 -188.6 312.17 C-188.95 313.83 -189.29 315.5 -189.6 317.17 C-189.93 317.5 -190.26 317.83 -190.6 318.17 C-190.78 319.54 -190.92 320.92 -191.04 322.29 C-191.45 326.44 -192.39 330.18 -193.6 334.17 C-194.61 338.91 -194.68 343.34 -194.6 348.17 C-194.93 348.17 -195.26 348.17 -195.6 348.17 C-198.63 363.96 -198.73 379.63 -198.64 395.65 C-198.62 399.03 -198.61 402.42 -198.61 405.81 C-198.58 415.42 -198.55 425.04 -198.5 434.65 C-198.47 440.56 -198.46 446.48 -198.45 452.39 C-198.44 454.62 -198.43 456.86 -198.42 459.1 C-198.2 494.61 -198.2 494.61 -211.21 508.33 C-228.92 526.13 -253.52 534.34 -278.47 534.42 C-288.16 534.42 -297.18 533.37 -306.6 531.17 C-307.71 530.91 -308.83 530.66 -309.98 530.39 C-323.73 526.71 -335.61 519.19 -345.6 509.17 C-346.34 508.49 -347.08 507.81 -347.84 507.11 C-356.26 499.21 -359.81 489.74 -360.87 478.23 C-360.96 475.28 -360.96 472.34 -360.93 469.38 C-360.92 468.32 -360.92 467.26 -360.92 466.16 C-360.91 463.94 -360.9 461.71 -360.88 459.49 C-360.85 456.08 -360.84 452.67 -360.83 449.26 C-360.82 447.1 -360.81 444.93 -360.8 442.76 C-360.8 441.74 -360.79 440.72 -360.79 439.67 C-360.78 438.73 -360.77 437.79 -360.76 436.82 C-360.75 435.57 -360.75 435.57 -360.74 434.31 C-360.6 432.17 -360.6 432.17 -359.6 429.17 C-360.26 428.51 -360.92 427.85 -361.6 427.17 C-361.76 424.73 -361.8 422.41 -361.75 419.98 C-361.74 419.24 -361.73 418.5 -361.72 417.74 C-361.7 415.29 -361.65 412.83 -361.61 410.38 C-361.59 408.68 -361.56 406.99 -361.54 405.29 C-361.49 401.72 -361.44 398.16 -361.38 394.6 C-361.3 390.03 -361.23 385.45 -361.17 380.87 C-361.13 377.37 -361.08 373.86 -361.02 370.35 C-361 368.66 -360.97 366.98 -360.95 365.29 C-360.92 362.93 -360.88 360.58 -360.83 358.23 C-360.83 357.52 -360.82 356.82 -360.81 356.09 C-360.71 351.28 -360.71 351.28 -359.6 350.17 C-359.45 348.52 -359.37 346.87 -359.32 345.21 C-359.26 343.7 -359.26 343.7 -359.2 342.15 C-359.17 341.08 -359.13 340.02 -359.1 338.92 C-359.03 336.83 -358.96 334.74 -358.88 332.65 C-358.85 331.72 -358.82 330.79 -358.79 329.83 C-358.6 327.2 -358.17 324.74 -357.6 322.17 C-357.09 319.38 -356.59 316.58 -356.1 313.79 C-355.8 312.22 -355.46 310.65 -355.06 309.1 C-354.55 306.99 -354.35 304.96 -354.16 302.79 C-353.77 299.01 -352.88 295.76 -351.6 292.17 C-351.23 290.17 -350.88 288.18 -350.6 286.17 C-349.94 286.17 -349.28 286.17 -348.6 286.17 C-348.78 285.6 -348.96 285.02 -349.14 284.43 C-350.3 278.66 -347.42 272.39 -345.32 267.07 C-344.65 265.3 -344.12 263.48 -343.6 261.67 C-342.86 259.08 -342.06 256.67 -341.1 254.17 C-339.71 250.55 -338.63 246.9 -337.6 243.17 C-336.6 240.17 -336.6 240.17 -335.6 237.17 C-335.6 236.84 -335.6 236.51 -335.6 236.17 C-334.94 235.84 -334.28 235.51 -333.6 235.17 C-333.24 233.51 -332.92 231.84 -332.6 230.17 C-332.15 228.74 -331.67 227.33 -331.16 225.92 C-330.91 225.23 -330.67 224.55 -330.41 223.84 C-329.6 222.17 -329.6 222.17 -327.6 221.17 C-327.22 219.85 -326.9 218.51 -326.6 217.17 C-325.98 215.68 -325.33 214.2 -324.66 212.73 C-323.23 209.57 -321.85 206.41 -320.6 203.17 C-319.94 203.17 -319.28 203.17 -318.6 203.17 C-318.52 202.51 -318.43 201.85 -318.35 201.17 C-317.14 196.35 -315.13 191.7 -311.6 188.17 C-309.22 184.71 -307.03 181.26 -305.47 177.36 C-304.52 174.97 -303.39 173.96 -301.6 172.17 C-301.27 171.34 -300.94 170.52 -300.6 169.67 C-299.57 167.09 -298.51 166.09 -296.6 164.17 C-296.45 163.51 -296.31 162.85 -296.16 162.17 C-295.4 159.45 -293.81 158.83 -291.6 157.17 C-290.8 155.07 -290.8 155.07 -290.6 153.17 C-289.94 153.17 -289.28 153.17 -288.6 153.17 C-288.33 152.53 -288.06 151.89 -287.79 151.23 C-286.6 149.17 -286.6 149.17 -283.6 148.17 C-283.54 147.46 -283.49 146.74 -283.44 146.01 C-282.32 142.23 -280 140.24 -277.16 137.67 C-273.25 134.21 -273.25 134.21 -270.67 129.76 C-269.46 126.85 -268.09 125.28 -265.87 123.05 C-265.11 122.28 -264.34 121.5 -263.55 120.71 C-262.73 119.89 -261.9 119.06 -261.05 118.22 C-260.2 117.36 -259.34 116.51 -258.47 115.63 C-256.67 113.83 -254.87 112.03 -253.06 110.24 C-250.3 107.49 -247.55 104.73 -244.8 101.96 C-243.05 100.21 -241.3 98.47 -239.55 96.72 C-238.73 95.89 -237.9 95.06 -237.06 94.21 C-236.29 93.45 -235.51 92.68 -234.71 91.9 C-234.04 91.22 -233.36 90.55 -232.67 89.86 C-230.41 88.01 -228.31 87.18 -225.6 86.17 C-223.49 84.35 -223.49 84.35 -221.6 82.23 C-218.76 79.27 -216.2 77.16 -212.6 75.17 C-211.61 74.34 -210.62 73.52 -209.6 72.67 C-207.01 70.51 -204.5 68.86 -201.6 67.17 C-200.94 66.51 -200.28 65.85 -199.6 65.17 C-198.28 65.17 -196.96 65.17 -195.6 65.17 C-195.27 64.18 -194.94 63.19 -194.6 62.17 C-193.94 62.17 -193.28 62.17 -192.6 62.17 C-192.6 61.51 -192.6 60.85 -192.6 60.17 C-191.83 59.9 -191.07 59.63 -190.29 59.36 C-187.59 58.37 -187.59 58.37 -186.04 56.54 C-184.6 55.17 -184.6 55.17 -180.6 55.17 C-180.6 54.51 -180.6 53.85 -180.6 53.17 C-179.65 52.71 -178.7 52.26 -177.72 51.79 C-174.59 50.37 -174.59 50.37 -172.6 48.17 C-169.65 46.85 -166.75 45.87 -163.6 45.17 C-163.6 44.51 -163.6 43.85 -163.6 43.17 C-156.97 40.17 -156.97 40.17 -153.6 40.17 C-153.6 39.51 -153.6 38.85 -153.6 38.17 C-152.95 37.91 -152.29 37.66 -151.62 37.4 C-147.75 35.87 -143.95 34.34 -140.22 32.48 C-137.97 31.35 -136.06 30.64 -133.6 30.17 C-133.6 29.51 -133.6 28.85 -133.6 28.17 C-132.48 28.04 -131.37 27.92 -130.22 27.79 C-126.57 27.52 -126.57 27.52 -124.6 25.17 C-123.28 25.17 -121.96 25.17 -120.6 25.17 C-120.27 24.51 -119.94 23.85 -119.6 23.17 C-117.62 22.44 -115.62 21.81 -113.6 21.23 C-111.84 20.71 -111.84 20.71 -110.05 20.18 C-108.34 19.68 -108.34 19.68 -106.6 19.17 C-101.19 17.85 -101.19 17.85 -96.6 15.17 C-95.42 15.04 -94.25 14.92 -93.04 14.79 C-89.88 14.45 -87.28 13.75 -84.35 12.54 C-80.65 11.19 -80.05 11.02 -76.6 12.17 C-76.6 11.51 -76.6 10.85 -76.6 10.17 C-74.55 9.94 -72.5 9.71 -70.45 9.48 C-68.59 9.35 -68.59 9.35 -67.6 8.17 C-65.27 7.79 -62.94 7.46 -60.6 7.17 C-59.58 7.04 -59.58 7.04 -58.54 6.9 C-54.78 6.42 -51.01 6.01 -47.22 5.67 C-46.03 5.5 -44.83 5.34 -43.6 5.17 C-43.27 4.51 -42.94 3.85 -42.6 3.17 C-42.6 3.83 -42.6 4.49 -42.6 5.17 C-42.03 4.85 -41.47 4.53 -40.89 4.21 C-38.44 3.1 -36.57 2.79 -33.89 2.57 C-33 2.49 -32.1 2.41 -31.17 2.33 C-30.24 2.26 -29.31 2.18 -28.35 2.11 C-26.51 1.95 -24.67 1.79 -22.83 1.63 C-21.61 1.53 -21.61 1.53 -20.37 1.43 C-18.2 1.23 -16.03 0.95 -13.87 0.65 C-9.24 0.06 -4.66 0.01 0 0 Z M308.4 144.17 C309.4 146.17 309.4 146.17 309.4 146.17 Z M-10.6 160.17 C-10.6 160.5 -10.6 160.83 -10.6 161.17 C-6.31 161.17 -2.02 161.17 2.4 161.17 C2.4 160.84 2.4 160.51 2.4 160.17 C-1.89 160.17 -6.18 160.17 -10.6 160.17 Z M7.4 160.17 C7.4 160.5 7.4 160.83 7.4 161.17 C10.7 161.17 14 161.17 17.4 161.17 C17.4 160.84 17.4 160.51 17.4 160.17 C14.1 160.17 10.8 160.17 7.4 160.17 Z M22.4 160.17 C22.4 160.5 22.4 160.83 22.4 161.17 C27.35 161.17 32.3 161.17 37.4 161.17 C37.4 160.84 37.4 160.51 37.4 160.17 C32.45 160.17 27.5 160.17 22.4 160.17 Z M-63.6 173.17 C-63.93 174.16 -64.26 175.15 -64.6 176.17 C-63.94 176.17 -63.28 176.17 -62.6 176.17 C-62.27 175.18 -61.94 174.19 -61.6 173.17 C-62.26 173.17 -62.92 173.17 -63.6 173.17 Z M343.4 199.17 C344.4 201.17 344.4 201.17 344.4 201.17 Z M-329.6 223.17 C-328.6 225.17 -328.6 225.17 -328.6 225.17 Z M-158.6 245.17 C-158.27 245.83 -157.94 246.49 -157.6 247.17 C-157.27 246.51 -156.94 245.85 -156.6 245.17 C-157.26 245.17 -157.92 245.17 -158.6 245.17 Z M366.4 252.17 C367.4 254.17 367.4 254.17 367.4 254.17 Z M-173.6 272.17 C-172.6 274.17 -172.6 274.17 -172.6 274.17 Z M374.4 284.17 C375.4 286.17 375.4 286.17 375.4 286.17 Z M-188.6 302.17 C-187.6 304.17 -187.6 304.17 -187.6 304.17 Z M378.4 302.17 C379.4 306.17 379.4 306.17 379.4 306.17 Z M-188.6 307.17 C-187.6 309.17 -187.6 309.17 -187.6 309.17 Z M-193.6 320.17 C-192.6 322.17 -192.6 322.17 -192.6 322.17 Z M-193.6 325.17 C-192.6 327.17 -192.6 327.17 -192.6 327.17 Z M-198.6 343.17 C-198.6 347.13 -198.6 351.09 -198.6 355.17 C-198.27 355.17 -197.94 355.17 -197.6 355.17 C-197.6 351.21 -197.6 347.25 -197.6 343.17 C-197.93 343.17 -198.26 343.17 -198.6 343.17 Z M-359.6 352.17 C-358.6 354.17 -358.6 354.17 -358.6 354.17 Z M386.4 356.17 C386.4 362.11 386.4 368.05 386.4 374.17 C386.73 374.17 387.06 374.17 387.4 374.17 C387.4 368.23 387.4 362.29 387.4 356.17 C387.07 356.17 386.74 356.17 386.4 356.17 Z M-200.6 358.17 C-199.6 360.17 -199.6 360.17 -199.6 360.17 Z M386.4 423.17 C387.4 426.17 387.4 426.17 387.4 426.17 Z " fill="#94A3A3" transform="translate(625.59765625,51.83203125)"/>
<path d="M0 0 C0.33 0 0.66 0 1 0 C1 17.16 1 34.32 1 52 C140.92 52 280.84 52 425 52 C425.98 54.94 426.11 56.76 426.07 59.82 C426.06 60.79 426.05 61.77 426.04 62.78 C426.02 63.84 426.01 64.9 425.99 65.99 C425.97 68.25 425.96 70.5 425.94 72.76 C425.91 76.3 425.88 79.85 425.83 83.39 C425.36 110.5 425.36 110.5 439.02 133.13 C457.59 151.51 483.21 158.28 508.72 158.25 C531.79 157.95 555.66 150.38 572.33 133.91 C583.21 122.05 585.1 111.06 585.28 95.57 C585.3 94.39 585.32 93.21 585.34 91.99 C585.42 86.94 585.48 81.89 585.55 76.84 C585.6 73.15 585.66 69.45 585.72 65.76 C585.73 64.61 585.75 63.46 585.76 62.28 C585.78 60.69 585.78 60.69 585.81 59.07 C585.82 58.14 585.84 57.21 585.85 56.24 C586 54 586 54 587 52 C603 50.48 620.05 55.49 634 63 C635.15 63.51 636.31 64.02 637.5 64.54 C647.63 69.25 655.11 76.44 662.94 84.25 C663.48 84.79 664.02 85.32 664.58 85.88 C666.14 87.43 667.68 89 669.21 90.58 C670.56 91.96 670.56 91.96 671.94 93.37 C674.05 96.06 674.69 97.64 675 101 C675.66 101 676.32 101 677 101 C677.84 102.43 678.67 103.87 679.5 105.31 C679.96 106.11 680.43 106.91 680.91 107.74 C682 110 682 110 682 113 C682.66 113 683.32 113 684 113 C684.33 115.64 684.66 118.28 685 121 C685.66 121 686.32 121 687 121 C690.75 130.39 692.3 138.8 692.25 148.92 C692.25 149.99 692.26 151.06 692.26 152.17 C692.27 155.76 692.26 159.35 692.25 162.94 C692.26 165.54 692.26 168.14 692.26 170.74 C692.27 176.39 692.27 182.05 692.27 187.7 C692.26 196.1 692.26 204.51 692.27 212.92 C692.28 227.93 692.28 242.95 692.27 257.96 C692.27 271.1 692.27 284.24 692.27 297.38 C692.27 298.69 692.27 298.69 692.27 300.02 C692.27 303.56 692.27 307.09 692.27 310.63 C692.28 343.82 692.27 377.01 692.26 410.19 C692.25 439.68 692.25 469.16 692.26 498.65 C692.27 531.78 692.28 564.9 692.27 598.03 C692.27 601.56 692.27 605.09 692.27 608.62 C692.27 609.49 692.27 610.36 692.27 611.26 C692.26 624.39 692.27 637.52 692.27 650.65 C692.28 665.58 692.28 680.51 692.27 695.44 C692.26 703.8 692.26 712.15 692.27 720.51 C692.27 726.75 692.27 732.98 692.26 739.22 C692.26 741.74 692.26 744.27 692.26 746.8 C692.27 750.22 692.26 753.65 692.25 757.08 C692.26 758.56 692.26 758.56 692.27 760.06 C692.23 766 691.48 771.24 690 777 C689.67 777 689.34 777 689 777 C689.03 776.45 689.06 775.91 689.09 775.34 C690.25 753.05 690.12 730.77 690.08 708.46 C690.06 702.74 690.06 697.02 690.05 691.31 C690.04 678.86 690.02 666.41 690 653.96 C689.98 646.18 689.97 638.41 689.96 630.63 C689.93 609.07 689.89 587.52 689.85 565.96 C689.84 564.93 689.84 564.93 689.84 563.88 C689.84 561.1 689.83 558.32 689.83 555.53 C689.82 553.44 689.82 551.35 689.81 549.25 C689.81 548.56 689.81 547.87 689.81 547.16 C689.76 524.65 689.73 502.15 689.71 479.64 C689.68 455.81 689.64 431.97 689.59 408.13 C689.56 395.15 689.54 382.17 689.53 369.19 C689.52 358.16 689.51 347.14 689.47 336.11 C689.46 330.48 689.45 324.85 689.45 319.22 C689.45 314.07 689.44 308.93 689.41 303.78 C689.41 301.92 689.41 300.05 689.41 298.18 C689.42 295.66 689.41 293.13 689.39 290.61 C689.39 289.87 689.4 289.13 689.41 288.38 C689.39 284.48 689.39 284.48 687.56 281.16 C687.04 280.77 686.53 280.39 686 280 C685.09 278.53 684.22 277.02 683.4 275.5 C682.91 274.62 682.43 273.74 681.93 272.83 C681.42 271.89 680.9 270.96 680.38 270 C675.86 261.95 671.34 254.76 665 248 C664.23 247.16 663.47 246.31 662.68 245.44 C645.44 227.23 619.92 215.28 594.83 213.81 C591.4 213.74 587.98 213.73 584.55 213.74 C583.25 213.74 581.94 213.74 580.59 213.73 C576.98 213.72 573.37 213.73 569.75 213.73 C565.82 213.73 561.88 213.73 557.94 213.72 C551.05 213.71 544.15 213.71 537.26 213.71 C527.01 213.71 516.75 213.7 506.5 213.69 C487.12 213.67 467.74 213.67 448.36 213.67 C433.4 213.66 418.43 213.66 403.46 213.65 C399.15 213.65 394.84 213.65 390.53 213.65 C389.46 213.65 388.39 213.65 387.28 213.65 C357.14 213.64 327 213.63 296.86 213.63 C295.73 213.63 294.59 213.63 293.42 213.63 C287.66 213.63 281.91 213.63 276.15 213.63 C274.43 213.63 274.43 213.63 272.68 213.63 C270.37 213.63 268.06 213.63 265.74 213.63 C229.77 213.63 193.8 213.62 157.83 213.59 C117.4 213.56 76.98 213.54 36.55 213.54 C32.24 213.54 27.92 213.54 23.61 213.54 C22.02 213.54 22.02 213.54 20.39 213.54 C3.32 213.54 -13.75 213.53 -30.82 213.51 C-47.99 213.5 -65.15 213.49 -82.31 213.51 C-92.5 213.51 -102.69 213.51 -112.88 213.49 C-119.7 213.48 -126.52 213.48 -133.33 213.5 C-137.21 213.5 -141.09 213.51 -144.97 213.49 C-164.44 213.41 -184.01 213.48 -202.06 221.81 C-202.84 222.16 -203.62 222.5 -204.43 222.86 C-228.91 233.96 -245.42 252.91 -257.78 276.22 C-258.17 276.96 -258.56 277.7 -258.97 278.46 C-259.31 279.12 -259.66 279.78 -260.01 280.46 C-261 282 -261 282 -263 283 C-263.33 294.55 -263.66 306.1 -264 318 C-264.99 317.67 -265.98 317.34 -267 317 C-267 257.6 -267 198.2 -267 137 C-266.67 137 -266.34 137 -266 137 C-265.5 133.04 -265.5 133.04 -265 129 C-264.34 129 -263.68 129 -263 129 C-263.06 128.36 -263.12 127.72 -263.19 127.06 C-262.85 121.58 -261.04 116.56 -258 112 C-255.67 108.06 -253.57 104.32 -252 100 C-251.34 100 -250.68 100 -250 100 C-249.5 98.51 -249.5 98.51 -249 97 C-247.47 93.27 -245.16 90.91 -242.32 88.09 C-241.39 87.16 -240.46 86.23 -239.51 85.28 C-239.02 84.8 -238.54 84.33 -238.04 83.84 C-236.57 82.38 -235.1 80.91 -233.63 79.45 C-224.13 70 -224.13 70 -220 70 C-220 69.34 -220 68.68 -220 68 C-218.95 67.6 -218.95 67.6 -217.88 67.19 C-212.25 64.89 -212.25 64.89 -207.24 61.54 C-204.37 59.57 -201.58 58.78 -198.25 57.81 C-197.08 57.47 -195.91 57.12 -194.7 56.77 C-193.81 56.52 -192.92 56.26 -192 56 C-192 55.67 -192 55.34 -192 55 C-189.69 55 -187.38 55 -185 55 C-184.5 54.01 -184.5 54.01 -184 53 C-183.67 53.33 -183.34 53.66 -183 54 C-183 53.67 -183 53.34 -183 53 C-177.86 52.39 -172.73 51.9 -167.56 51.75 C-166.76 51.72 -165.96 51.7 -165.13 51.67 C-162.51 52.08 -161.65 52.98 -160 55 C-160.5 55.99 -160.5 55.99 -161 57 C-161.11 58.49 -161.16 59.99 -161.18 61.49 C-161.19 62.42 -161.2 63.35 -161.22 64.31 C-161.22 65.33 -161.23 66.34 -161.24 67.39 C-161.25 68.96 -161.25 68.96 -161.26 70.57 C-161.28 72.8 -161.29 75.03 -161.3 77.26 C-161.31 80.63 -161.36 83.99 -161.4 87.36 C-161.69 109.89 -161.69 109.89 -151 129 C-150.23 129.87 -149.46 130.74 -148.66 131.64 C-141.87 138.94 -134.81 143.39 -126 148 C-125.2 148.51 -124.41 149.03 -123.59 149.56 C-103.63 160.68 -74.59 160.88 -53 155 C-40.2 151.08 -28.17 145.83 -18 137 C-17.22 136.33 -16.45 135.66 -15.65 134.97 C-5.79 125.86 -1.45 115.07 -0.91 101.76 C-0.8 96.27 -0.85 90.78 -0.91 85.29 C-0.96 79.91 -0.98 74.52 -1 69.14 C-1 68.01 -1 66.88 -1.01 65.72 C-1.04 51.95 -0.77 38.2 -0.5 24.44 C-0.48 23.21 -0.45 21.98 -0.43 20.71 C-0.29 13.81 -0.15 6.9 0 0 Z " fill="#F0C313" transform="translate(427,427)"/>
<path d="M0 0 C0.9 -0 1.81 -0.01 2.74 -0.01 C5.65 -0.02 8.56 -0.02 11.46 -0.02 C12.95 -0.02 12.95 -0.02 14.46 -0.02 C28.16 -0.01 41.67 0.31 55.29 1.92 C58.47 2.29 61.65 2.54 64.84 2.79 C65.75 2.87 66.65 2.94 67.59 3.02 C68.49 3.09 68.49 3.09 69.4 3.17 C69.4 3.5 69.4 3.83 69.4 4.17 C70.15 4.28 70.91 4.4 71.68 4.52 C75.07 5.04 78.45 5.57 81.84 6.11 C83.02 6.29 84.21 6.47 85.43 6.66 C86.55 6.84 87.68 7.01 88.84 7.2 C89.88 7.36 90.92 7.52 91.99 7.69 C94.4 8.17 94.4 8.17 95.4 9.17 C98.56 9.67 101.73 10.07 104.91 10.47 C108.72 11.23 111.85 12.62 115.4 14.17 C118.01 14.87 120.59 15.51 123.21 16.11 C128.81 17.43 134.07 19.02 139.37 21.3 C141.57 22.27 141.57 22.27 144.59 23.23 C147.4 24.17 147.4 24.17 150.96 25.73 C153.85 26.94 156.33 27.7 159.4 28.17 C159.4 28.83 159.4 29.49 159.4 30.17 C160.36 30.29 160.36 30.29 161.34 30.42 C167.71 31.98 173.59 35.2 179.4 38.17 C180.58 38.75 181.75 39.32 182.96 39.92 C193.4 45.14 203.72 50.65 213.4 57.17 C214.21 57.64 215.01 58.12 215.84 58.61 C220.08 61.19 224.07 64.07 227.9 67.23 C229.9 68.77 231.72 69.96 233.9 71.17 C241.51 75.39 241.51 75.39 243.4 79.17 C244.02 79.31 244.65 79.44 245.29 79.59 C248.51 80.47 249.62 82.68 251.55 85.28 C253.42 87.38 253.42 87.38 256.48 88.77 C261.4 91.54 265.12 95.46 269.07 99.44 C269.88 100.24 270.68 101.04 271.51 101.87 C273.2 103.56 274.89 105.25 276.57 106.95 C279.15 109.54 281.74 112.11 284.33 114.68 C285.97 116.33 287.62 117.98 289.26 119.63 C290.42 120.78 290.42 120.78 291.6 121.95 C295.42 125.82 298.19 129.13 300.4 134.17 C302.74 136.63 305.13 138.92 307.64 141.2 C308.96 142.45 310.19 143.81 311.4 145.17 C311.4 146.49 311.4 147.81 311.4 149.17 C312.3 149.51 312.3 149.51 313.21 149.86 C315.99 151.52 316.84 153.37 318.4 156.17 C319.38 157.19 320.38 158.19 321.4 159.17 C323.4 162.17 323.4 162.17 323.4 166.17 C324.36 166.54 324.36 166.54 325.34 166.92 C327.4 168.17 327.4 168.17 328.03 170.23 C328.21 171.19 328.21 171.19 328.4 172.17 C329.06 172.5 329.72 172.83 330.4 173.17 C333.11 176.19 333.4 176.9 333.4 181.17 C334.39 181.5 335.38 181.83 336.4 182.17 C339.4 188.28 339.4 188.28 339.4 191.17 C340.39 191.83 341.38 192.49 342.4 193.17 C343.45 195.14 344.45 197.14 345.4 199.17 C345.96 200.01 346.52 200.86 347.09 201.73 C348.56 204.46 348.66 206.12 348.4 209.17 C349.39 209.5 350.38 209.83 351.4 210.17 C354.49 215.13 355.91 220.41 356.4 226.17 C357.06 226.17 357.72 226.17 358.4 226.17 C358.4 227.82 358.4 229.47 358.4 231.17 C359.39 231.5 360.38 231.83 361.4 232.17 C361.48 233.01 361.57 233.86 361.65 234.73 C362.38 238.07 363.58 240.16 365.36 243.04 C367.14 246.66 367.84 250.56 368.69 254.5 C369.3 257.37 369.3 257.37 371.4 260.17 C373.37 265.64 373.64 270.45 373.4 276.17 C374.39 276.5 375.38 276.83 376.4 277.17 C376.38 277.95 376.36 278.74 376.34 279.54 C376.22 282.15 376.22 282.15 377.4 284.17 C377.07 284.83 376.74 285.49 376.4 286.17 C377.06 286.17 377.72 286.17 378.4 286.17 C378.4 289.47 378.4 292.77 378.4 296.17 C379.06 296.17 379.72 296.17 380.4 296.17 C381.86 299.08 381.37 301.77 381.24 304.98 C381.24 307.46 381.24 307.46 383.4 310.17 C383.6 312.65 383.6 312.65 383.53 315.36 C383.51 316.26 383.49 317.16 383.47 318.09 C383.44 319.12 383.44 319.12 383.4 320.17 C351.45 321.23 323.22 314.16 299 292.12 C297.86 291.04 296.72 289.95 295.59 288.86 C295.08 288.37 294.56 287.89 294.03 287.39 C285.4 278.76 281.22 267.77 277.59 256.36 C276.74 253.79 275.87 251.22 275 248.66 C274.79 248.02 274.57 247.39 274.35 246.73 C268.65 230.11 261.18 214.75 251.4 200.17 C250.78 199.23 250.78 199.23 250.14 198.27 C241.83 185.91 232.23 174.76 221.55 164.39 C219.64 162.42 218.13 160.49 216.59 158.23 C207.03 144.92 190.05 135.21 176.26 126.83 C172.58 124.58 169.05 122.22 165.55 119.7 C160.68 116.27 155.68 113.48 150.34 110.86 C149.41 110.39 148.47 109.93 147.51 109.45 C136.4 104.05 124.96 99.51 113.4 95.17 C112.71 94.9 112.01 94.64 111.29 94.36 C91.87 87.06 70.98 82.57 50.4 80.17 C49.62 80.07 48.83 79.96 48.02 79.86 C-3.78 73.23 -57 82.02 -104.6 103.17 C-105.58 103.6 -106.57 104.04 -107.58 104.49 C-121.01 110.53 -133.37 117.21 -145.4 125.67 C-148.47 127.76 -151.63 129.68 -154.79 131.62 C-164.08 137.3 -172.57 143.59 -180.84 150.66 C-182.05 151.7 -183.27 152.73 -184.5 153.75 C-187.57 156.32 -190.29 158.7 -192.54 162.04 C-195.23 165.82 -198.29 168.95 -201.6 172.19 C-217.17 187.64 -230.19 207.05 -238.76 227.22 C-239.65 229.29 -240.56 231.35 -241.48 233.41 C-245.05 241.55 -248.15 249.71 -250.91 258.17 C-254.47 269.04 -257.7 277.69 -265.6 286.17 C-266.06 286.78 -266.53 287.4 -267 288.04 C-280.91 306.43 -305.74 316.02 -327.68 319.81 C-332.88 320.45 -338.05 320.38 -343.29 320.29 C-344.38 320.28 -345.48 320.27 -346.6 320.27 C-349.27 320.24 -351.93 320.21 -354.6 320.17 C-354.6 300.61 -354.6 300.61 -351.6 292.17 C-351.23 290.17 -350.88 288.18 -350.6 286.17 C-349.94 286.17 -349.28 286.17 -348.6 286.17 C-348.78 285.6 -348.96 285.02 -349.14 284.43 C-350.3 278.66 -347.42 272.39 -345.32 267.07 C-344.65 265.3 -344.12 263.48 -343.6 261.67 C-342.86 259.08 -342.06 256.67 -341.1 254.17 C-339.71 250.55 -338.63 246.9 -337.6 243.17 C-336.6 240.17 -336.6 240.17 -335.6 237.17 C-335.6 236.84 -335.6 236.51 -335.6 236.17 C-334.94 235.84 -334.28 235.51 -333.6 235.17 C-333.24 233.51 -332.92 231.84 -332.6 230.17 C-332.15 228.74 -331.67 227.33 -331.16 225.92 C-330.91 225.23 -330.67 224.55 -330.41 223.84 C-329.6 222.17 -329.6 222.17 -327.6 221.17 C-327.22 219.85 -326.9 218.51 -326.6 217.17 C-325.98 215.68 -325.33 214.2 -324.66 212.73 C-323.23 209.57 -321.85 206.41 -320.6 203.17 C-319.94 203.17 -319.28 203.17 -318.6 203.17 C-318.52 202.51 -318.43 201.85 -318.35 201.17 C-317.14 196.35 -315.13 191.7 -311.6 188.17 C-309.22 184.71 -307.03 181.26 -305.47 177.36 C-304.52 174.97 -303.39 173.96 -301.6 172.17 C-301.27 171.34 -300.94 170.52 -300.6 169.67 C-299.57 167.09 -298.51 166.09 -296.6 164.17 C-296.45 163.51 -296.31 162.85 -296.16 162.17 C-295.4 159.45 -293.81 158.83 -291.6 157.17 C-290.8 155.07 -290.8 155.07 -290.6 153.17 C-289.94 153.17 -289.28 153.17 -288.6 153.17 C-288.33 152.53 -288.06 151.89 -287.79 151.23 C-286.6 149.17 -286.6 149.17 -283.6 148.17 C-283.54 147.46 -283.49 146.74 -283.44 146.01 C-282.32 142.23 -280 140.24 -277.16 137.67 C-273.25 134.21 -273.25 134.21 -270.67 129.76 C-269.46 126.85 -268.09 125.28 -265.87 123.05 C-265.11 122.28 -264.34 121.5 -263.55 120.71 C-262.73 119.89 -261.9 119.06 -261.05 118.22 C-260.2 117.36 -259.34 116.51 -258.47 115.63 C-256.67 113.83 -254.87 112.03 -253.06 110.24 C-250.3 107.49 -247.55 104.73 -244.8 101.96 C-243.05 100.21 -241.3 98.47 -239.55 96.72 C-238.73 95.89 -237.9 95.06 -237.06 94.21 C-236.29 93.45 -235.51 92.68 -234.71 91.9 C-234.04 91.22 -233.36 90.55 -232.67 89.86 C-230.41 88.01 -228.31 87.18 -225.6 86.17 C-223.49 84.35 -223.49 84.35 -221.6 82.23 C-218.76 79.27 -216.2 77.16 -212.6 75.17 C-211.61 74.34 -210.62 73.52 -209.6 72.67 C-207.01 70.51 -204.5 68.86 -201.6 67.17 C-200.94 66.51 -200.28 65.85 -199.6 65.17 C-198.28 65.17 -196.96 65.17 -195.6 65.17 C-195.27 64.18 -194.94 63.19 -194.6 62.17 C-193.94 62.17 -193.28 62.17 -192.6 62.17 C-192.6 61.51 -192.6 60.85 -192.6 60.17 C-191.83 59.9 -191.07 59.63 -190.29 59.36 C-187.59 58.37 -187.59 58.37 -186.04 56.54 C-184.6 55.17 -184.6 55.17 -180.6 55.17 C-180.6 54.51 -180.6 53.85 -180.6 53.17 C-179.65 52.71 -178.7 52.26 -177.72 51.79 C-174.59 50.37 -174.59 50.37 -172.6 48.17 C-169.65 46.85 -166.75 45.87 -163.6 45.17 C-163.6 44.51 -163.6 43.85 -163.6 43.17 C-156.97 40.17 -156.97 40.17 -153.6 40.17 C-153.6 39.51 -153.6 38.85 -153.6 38.17 C-152.95 37.91 -152.29 37.66 -151.62 37.4 C-147.75 35.87 -143.95 34.34 -140.22 32.48 C-137.97 31.35 -136.06 30.64 -133.6 30.17 C-133.6 29.51 -133.6 28.85 -133.6 28.17 C-132.48 28.04 -131.37 27.92 -130.22 27.79 C-126.57 27.52 -126.57 27.52 -124.6 25.17 C-123.28 25.17 -121.96 25.17 -120.6 25.17 C-120.27 24.51 -119.94 23.85 -119.6 23.17 C-117.62 22.44 -115.62 21.81 -113.6 21.23 C-111.84 20.71 -111.84 20.71 -110.05 20.18 C-108.34 19.68 -108.34 19.68 -106.6 19.17 C-101.19 17.85 -101.19 17.85 -96.6 15.17 C-95.42 15.04 -94.25 14.92 -93.04 14.79 C-89.88 14.45 -87.28 13.75 -84.35 12.54 C-80.65 11.19 -80.05 11.02 -76.6 12.17 C-76.6 11.51 -76.6 10.85 -76.6 10.17 C-74.55 9.94 -72.5 9.71 -70.45 9.48 C-68.59 9.35 -68.59 9.35 -67.6 8.17 C-65.27 7.79 -62.94 7.46 -60.6 7.17 C-59.58 7.04 -59.58 7.04 -58.54 6.9 C-54.78 6.42 -51.01 6.01 -47.22 5.67 C-46.03 5.5 -44.83 5.34 -43.6 5.17 C-43.27 4.51 -42.94 3.85 -42.6 3.17 C-42.6 3.83 -42.6 4.49 -42.6 5.17 C-42.03 4.85 -41.47 4.53 -40.89 4.21 C-38.44 3.1 -36.57 2.79 -33.89 2.57 C-33 2.49 -32.1 2.41 -31.17 2.33 C-30.24 2.26 -29.31 2.18 -28.35 2.11 C-26.51 1.95 -24.67 1.79 -22.83 1.63 C-21.61 1.53 -21.61 1.53 -20.37 1.43 C-18.2 1.23 -16.03 0.95 -13.87 0.65 C-9.24 0.06 -4.66 0.01 0 0 Z M308.4 144.17 C309.4 146.17 309.4 146.17 309.4 146.17 Z M343.4 199.17 C344.4 201.17 344.4 201.17 344.4 201.17 Z M-329.6 223.17 C-328.6 225.17 -328.6 225.17 -328.6 225.17 Z M366.4 252.17 C367.4 254.17 367.4 254.17 367.4 254.17 Z M374.4 284.17 C375.4 286.17 375.4 286.17 375.4 286.17 Z M378.4 302.17 C379.4 306.17 379.4 306.17 379.4 306.17 Z " fill="#B8C2C3" transform="translate(625.59765625,51.83203125)"/>
<path d="M0 0 C1.06 -0.01 2.12 -0.01 3.22 -0.02 C4.38 -0.01 5.54 -0.01 6.74 -0 C8.61 -0.01 8.61 -0.01 10.51 -0.01 C13.98 -0.02 17.44 -0.01 20.9 -0.01 C24.67 -0 28.43 -0.01 32.2 -0.01 C38.8 -0.02 45.4 -0.02 52 -0.01 C61.82 -0.01 71.63 -0.01 81.45 -0.02 C98.98 -0.03 116.51 -0.03 134.04 -0.02 C149.38 -0.02 164.72 -0.01 180.06 -0.02 C181.08 -0.02 182.09 -0.02 183.14 -0.02 C187.27 -0.02 191.39 -0.02 195.52 -0.02 C234.24 -0.03 272.97 -0.02 311.7 -0.01 C346.12 0 380.55 -0 414.98 -0.01 C453.63 -0.02 492.29 -0.03 530.94 -0.02 C535.06 -0.02 539.18 -0.02 543.3 -0.02 C544.31 -0.02 545.33 -0.02 546.37 -0.02 C561.7 -0.01 577.04 -0.02 592.37 -0.02 C609.8 -0.03 627.23 -0.03 644.66 -0.02 C654.42 -0.01 664.18 -0.01 673.94 -0.02 C680.45 -0.02 686.97 -0.02 693.48 -0.01 C697.2 -0 700.91 -0 704.63 -0.01 C708.62 -0.02 712.62 -0.01 716.61 -0 C717.78 -0.01 718.94 -0.01 720.14 -0.02 C721.2 -0.01 722.26 -0.01 723.36 0 C724.73 0 724.73 0 726.13 0 C728.98 0.28 731.11 0.98 733.68 2.25 C734.82 4.9 734.81 7.52 734.82 10.39 C734.83 11.6 734.83 11.6 734.84 12.83 C734.84 14.12 734.84 14.12 734.85 15.43 C734.85 16.33 734.85 17.22 734.86 18.14 C734.86 20.02 734.86 21.91 734.86 23.79 C734.87 26.67 734.88 29.55 734.9 32.43 C734.91 34.27 734.91 36.1 734.91 37.93 C734.92 38.79 734.92 39.65 734.93 40.54 C734.9 48.76 734.9 48.76 732.68 52.25 C729.14 54 726.28 54.5 722.36 54.5 C721.29 54.51 720.23 54.52 719.14 54.52 C717.39 54.52 717.39 54.52 715.61 54.51 C714.37 54.51 713.13 54.52 711.85 54.52 C708.38 54.53 704.92 54.53 701.45 54.53 C697.69 54.52 693.92 54.53 690.16 54.54 C683.56 54.55 676.96 54.56 670.36 54.56 C660.54 54.56 650.72 54.57 640.91 54.58 C621.34 54.6 601.76 54.61 582.19 54.62 C581.18 54.62 580.16 54.62 579.12 54.62 C578.1 54.62 577.09 54.62 576.04 54.62 C564.79 54.62 553.55 54.63 542.3 54.64 C508.34 54.65 474.38 54.67 440.42 54.67 C439.34 54.67 438.25 54.67 437.13 54.67 C432.73 54.67 428.32 54.68 423.92 54.68 C420.61 54.68 417.29 54.68 413.98 54.68 C412.88 54.68 411.79 54.68 410.66 54.68 C376.23 54.68 341.81 54.7 307.38 54.74 C268.72 54.78 230.07 54.8 191.42 54.8 C187.3 54.8 183.18 54.8 179.06 54.8 C178.05 54.8 177.03 54.8 175.99 54.8 C159.64 54.8 143.29 54.82 126.95 54.84 C110.53 54.87 94.12 54.87 77.7 54.86 C67.94 54.85 58.18 54.85 48.42 54.88 C41.9 54.9 35.39 54.89 28.88 54.88 C25.16 54.87 21.45 54.87 17.73 54.89 C13.73 54.91 9.74 54.89 5.74 54.87 C4.58 54.88 3.42 54.9 2.22 54.91 C-6.43 54.81 -6.43 54.81 -9.54 51.85 C-11.38 49.17 -11.94 47.99 -11.91 44.8 C-11.91 43.95 -11.91 43.1 -11.91 42.23 C-11.88 40.88 -11.88 40.88 -11.85 39.5 C-11.84 38.56 -11.84 37.62 -11.83 36.65 C-11.81 33.67 -11.75 30.68 -11.7 27.69 C-11.68 25.67 -11.67 23.66 -11.65 21.64 C-11.62 17.95 -11.58 14.26 -11.51 10.57 C-11.5 9.83 -11.49 9.09 -11.48 8.33 C-11.17 4.22 -11.17 4.22 -10.32 2.25 C-6.79 0.5 -3.92 0 0 0 Z " fill="#E47F20" transform="translate(278.32166862487793,852.7493016719818)"/>
<path d="M0 0 C1.06 -0.01 2.12 -0.01 3.22 -0.02 C4.98 -0.01 4.98 -0.01 6.77 0 C8.02 -0 9.27 -0.01 10.55 -0.01 C14.03 -0.02 17.51 -0.02 20.99 -0 C24.77 0 28.55 -0 32.33 -0.01 C38.96 -0.02 45.59 -0.02 52.22 -0.01 C62.08 0 71.94 0 81.8 -0.01 C99.41 -0.02 117.02 -0.01 134.63 -0 C150.04 0.01 165.45 0.01 180.86 0.01 C181.88 0.01 182.9 0.01 183.95 0.01 C188.09 0.01 192.24 0.01 196.38 0.01 C235.28 0.01 274.18 0.02 313.07 0.04 C347.65 0.06 382.23 0.06 416.81 0.06 C419.03 0.06 421.25 0.06 423.47 0.06 C424.57 0.06 425.67 0.06 426.8 0.06 C432.32 0.06 437.85 0.06 443.37 0.06 C444.46 0.06 445.55 0.05 446.68 0.05 C475.54 0.05 504.41 0.06 533.28 0.06 C536.39 0.07 539.49 0.07 542.6 0.07 C544.66 0.07 546.72 0.07 548.78 0.07 C563.16 0.07 577.54 0.07 591.92 0.07 C610.45 0.07 628.98 0.07 647.51 0.09 C657.31 0.1 667.12 0.1 676.92 0.09 C683.47 0.09 690.01 0.1 696.55 0.11 C700.28 0.11 704.02 0.11 707.75 0.11 C711.76 0.1 715.78 0.11 719.79 0.12 C720.96 0.12 722.13 0.11 723.33 0.11 C724.4 0.11 725.47 0.12 726.56 0.12 C727.48 0.12 728.4 0.12 729.35 0.12 C732.2 0.4 734.34 1.1 736.91 2.37 C738.07 5.06 738.03 7.72 738.04 10.62 C738.04 11.86 738.04 11.86 738.05 13.13 C738.04 14.01 738.04 14.9 738.04 15.81 C738.04 16.73 738.04 17.65 738.04 18.59 C738.04 20.53 738.04 22.46 738.04 24.4 C738.03 27.36 738.04 30.33 738.04 33.29 C738.04 35.17 738.04 37.05 738.04 38.94 C738.04 39.82 738.04 40.71 738.05 41.62 C738.04 42.45 738.04 43.28 738.04 44.13 C738.04 45.22 738.04 45.22 738.03 46.33 C737.9 48.48 737.61 50.33 736.91 52.37 C734.4 53.63 732.72 53.5 729.92 53.5 C728.85 53.51 727.79 53.51 726.69 53.51 C725.51 53.51 724.33 53.51 723.11 53.51 C721.86 53.51 720.61 53.51 719.32 53.51 C715.82 53.52 712.33 53.52 708.83 53.52 C705.03 53.52 701.23 53.52 697.44 53.52 C689.9 53.53 682.36 53.53 674.81 53.53 C665.79 53.54 656.76 53.54 647.73 53.55 C625.91 53.57 604.09 53.57 582.27 53.58 C571.95 53.58 561.64 53.58 551.32 53.59 C516.03 53.6 480.74 53.61 445.45 53.61 C443.23 53.61 441.01 53.61 438.8 53.61 C436.58 53.61 434.35 53.61 432.13 53.61 C427.67 53.61 423.22 53.61 418.76 53.62 C417.1 53.62 417.1 53.62 415.41 53.62 C379.55 53.62 343.7 53.64 307.84 53.66 C269.96 53.68 232.07 53.7 194.19 53.7 C190.04 53.7 185.88 53.7 181.73 53.7 C180.71 53.7 179.68 53.7 178.63 53.7 C162.13 53.7 145.64 53.71 129.14 53.73 C112.57 53.74 96.01 53.74 79.44 53.73 C69.59 53.73 59.74 53.73 49.88 53.75 C43.31 53.76 36.74 53.76 30.17 53.75 C26.42 53.74 22.67 53.74 18.92 53.76 C14.89 53.77 10.86 53.76 6.83 53.75 C5.65 53.75 4.47 53.76 3.26 53.77 C2.19 53.76 1.12 53.76 0.02 53.75 C-0.9 53.75 -1.82 53.75 -2.77 53.75 C-5.54 53.3 -6.43 52.6 -8.09 50.37 C-8.47 48.25 -8.47 48.25 -8.48 45.77 C-8.49 44.84 -8.5 43.91 -8.51 42.95 C-8.5 41.94 -8.5 40.94 -8.49 39.91 C-8.49 38.87 -8.5 37.84 -8.5 36.78 C-8.5 34.6 -8.5 32.41 -8.48 30.23 C-8.47 26.89 -8.48 23.54 -8.5 20.2 C-8.5 18.08 -8.5 15.96 -8.49 13.84 C-8.5 12.84 -8.5 11.84 -8.51 10.8 C-8.5 9.87 -8.49 8.94 -8.48 7.98 C-8.48 7.16 -8.48 6.34 -8.47 5.5 C-7.6 0.63 -4.48 -0 0 0 Z " fill="#E47F20" transform="translate(275.0925077199936,1066.62510317564)"/>
<path d="M0 0 C1.06 -0.01 2.12 -0.01 3.22 -0.02 C4.98 -0.01 4.98 -0.01 6.77 0 C8.02 -0 9.27 -0.01 10.55 -0.01 C14.03 -0.02 17.51 -0.02 20.99 -0 C24.77 0 28.55 -0 32.33 -0.01 C38.96 -0.02 45.59 -0.02 52.22 -0.01 C62.08 0 71.94 0 81.8 -0.01 C99.41 -0.02 117.02 -0.01 134.63 -0 C150.04 0.01 165.45 0.01 180.86 0.01 C181.88 0.01 182.9 0.01 183.95 0.01 C188.09 0.01 192.24 0.01 196.38 0.01 C235.28 0.01 274.18 0.02 313.07 0.04 C347.65 0.06 382.23 0.06 416.81 0.06 C419.03 0.06 421.25 0.06 423.47 0.06 C424.57 0.06 425.67 0.06 426.8 0.06 C432.32 0.06 437.85 0.06 443.37 0.06 C444.46 0.06 445.55 0.05 446.68 0.05 C475.54 0.05 504.41 0.06 533.28 0.06 C536.39 0.07 539.49 0.07 542.6 0.07 C544.66 0.07 546.72 0.07 548.78 0.07 C563.16 0.07 577.54 0.07 591.92 0.07 C610.45 0.07 628.98 0.07 647.51 0.09 C657.31 0.1 667.12 0.1 676.92 0.09 C683.47 0.09 690.01 0.1 696.55 0.11 C700.28 0.11 704.02 0.11 707.75 0.11 C711.76 0.1 715.78 0.11 719.79 0.12 C720.96 0.12 722.13 0.11 723.33 0.11 C724.4 0.11 725.47 0.12 726.56 0.12 C727.48 0.12 728.4 0.12 729.35 0.12 C732.2 0.4 734.34 1.1 736.91 2.37 C738.07 5.06 738.03 7.72 738.04 10.62 C738.04 11.86 738.04 11.86 738.05 13.13 C738.04 14.01 738.04 14.9 738.04 15.81 C738.04 16.73 738.04 17.65 738.04 18.59 C738.04 20.53 738.04 22.46 738.04 24.4 C738.03 27.36 738.04 30.33 738.04 33.29 C738.04 35.17 738.04 37.05 738.04 38.94 C738.04 39.82 738.04 40.71 738.05 41.62 C738.04 42.45 738.04 43.28 738.04 44.13 C738.04 45.22 738.04 45.22 738.03 46.33 C737.9 48.48 737.61 50.33 736.91 52.37 C734.4 53.63 732.72 53.5 729.92 53.5 C728.85 53.51 727.79 53.51 726.69 53.51 C725.51 53.51 724.33 53.51 723.11 53.51 C721.86 53.51 720.61 53.51 719.32 53.51 C715.82 53.52 712.33 53.52 708.83 53.52 C705.03 53.52 701.23 53.52 697.44 53.52 C689.9 53.53 682.36 53.53 674.81 53.53 C665.79 53.54 656.76 53.54 647.73 53.55 C625.91 53.57 604.09 53.57 582.27 53.58 C571.95 53.58 561.64 53.58 551.32 53.59 C516.03 53.6 480.74 53.61 445.45 53.61 C443.23 53.61 441.01 53.61 438.8 53.61 C436.58 53.61 434.35 53.61 432.13 53.61 C427.67 53.61 423.22 53.61 418.76 53.62 C417.1 53.62 417.1 53.62 415.41 53.62 C379.55 53.62 343.7 53.64 307.84 53.66 C269.96 53.68 232.07 53.7 194.19 53.7 C190.04 53.7 185.88 53.7 181.73 53.7 C180.71 53.7 179.68 53.7 178.63 53.7 C162.13 53.7 145.64 53.71 129.14 53.73 C112.57 53.74 96.01 53.74 79.44 53.73 C69.59 53.73 59.74 53.73 49.88 53.75 C43.31 53.76 36.74 53.76 30.17 53.75 C26.42 53.74 22.67 53.74 18.92 53.76 C14.89 53.77 10.86 53.76 6.83 53.75 C5.65 53.75 4.47 53.76 3.26 53.77 C2.19 53.76 1.12 53.76 0.02 53.75 C-0.9 53.75 -1.82 53.75 -2.77 53.75 C-5.54 53.3 -6.43 52.6 -8.09 50.37 C-8.47 48.25 -8.47 48.25 -8.48 45.77 C-8.49 44.84 -8.5 43.91 -8.51 42.95 C-8.5 41.94 -8.5 40.94 -8.49 39.91 C-8.49 38.87 -8.5 37.84 -8.5 36.78 C-8.5 34.6 -8.5 32.41 -8.48 30.23 C-8.47 26.89 -8.48 23.54 -8.5 20.2 C-8.5 18.08 -8.5 15.96 -8.49 13.84 C-8.5 12.84 -8.5 11.84 -8.51 10.8 C-8.5 9.87 -8.49 8.94 -8.48 7.98 C-8.48 7.16 -8.48 6.34 -8.47 5.5 C-7.6 0.63 -4.48 -0 0 0 Z " fill="#E47F20" transform="translate(275.0925077199936,746.6251031756401)"/>
<path d="M0 0 C1.6 -0 1.6 -0 3.23 -0.01 C5 -0 5 -0 6.81 -0 C8.06 -0 9.31 -0 10.6 -0 C14.1 -0.01 17.6 -0.01 21.1 -0 C24.89 -0 28.69 -0 32.49 -0.01 C39.15 -0.01 45.81 -0.01 52.48 -0.01 C62.39 -0 72.3 -0.01 82.2 -0.01 C99.9 -0.01 117.59 -0.01 135.29 -0.01 C150.77 -0.01 166.25 -0.01 181.74 -0.01 C182.76 -0.01 183.79 -0.01 184.84 -0.01 C189.01 -0.01 193.17 -0.01 197.33 -0.01 C236.41 -0.01 275.48 -0.01 314.56 -0 C349.31 0 384.06 -0 418.81 -0.01 C457.81 -0.01 496.81 -0.01 535.82 -0.01 C539.97 -0.01 544.13 -0.01 548.28 -0.01 C549.31 -0.01 550.33 -0.01 551.38 -0.01 C566.86 -0.01 582.34 -0.01 597.81 -0.01 C615.4 -0.01 633 -0.01 650.59 -0.01 C660.44 -0 670.3 -0 680.15 -0.01 C686.72 -0.01 693.3 -0.01 699.87 -0 C703.62 -0 707.37 -0 711.12 -0.01 C715.15 -0.01 719.18 -0.01 723.21 -0 C724.98 -0 724.98 -0 726.79 -0.01 C727.86 -0.01 728.92 -0 730.02 0 C730.94 0 731.86 0 732.81 0 C735.01 0.13 735.01 0.13 737.01 1.13 C737.97 3.92 738.14 6.53 738.15 9.46 C738.16 10.73 738.16 10.73 738.17 12.03 C738.18 13.39 738.18 13.39 738.18 14.78 C738.18 15.72 738.18 16.66 738.19 17.63 C738.19 19.61 738.19 21.6 738.19 23.58 C738.2 26.61 738.21 29.65 738.23 32.68 C738.24 34.61 738.24 36.54 738.24 38.47 C738.25 39.38 738.25 40.28 738.26 41.22 C738.26 42.07 738.26 42.91 738.25 43.79 C738.25 44.53 738.25 45.27 738.26 46.04 C737.96 48.52 737.43 50.06 736.01 52.13 C732.93 53.19 730.04 53.25 726.81 53.25 C725.75 53.25 724.69 53.26 723.6 53.26 C721.85 53.26 721.85 53.26 720.07 53.25 C718.83 53.26 717.58 53.26 716.3 53.26 C712.84 53.26 709.37 53.26 705.91 53.26 C702.14 53.26 698.38 53.26 694.61 53.27 C688.01 53.27 681.41 53.27 674.81 53.27 C664.99 53.27 655.17 53.27 645.35 53.28 C626.8 53.29 608.25 53.29 589.69 53.29 C575.37 53.29 561.05 53.29 546.72 53.3 C542.6 53.3 538.48 53.3 534.37 53.3 C532.83 53.3 532.83 53.3 531.26 53.3 C502.45 53.31 473.64 53.31 444.83 53.31 C443.75 53.31 442.66 53.31 441.54 53.31 C436.03 53.31 430.52 53.31 425.02 53.31 C423.92 53.31 422.83 53.31 421.7 53.31 C419.49 53.31 417.28 53.31 415.06 53.31 C380.63 53.31 346.2 53.32 311.77 53.33 C273.11 53.35 234.45 53.36 195.79 53.35 C191.67 53.35 187.55 53.35 183.43 53.35 C181.91 53.35 181.91 53.35 180.36 53.35 C164.01 53.35 147.66 53.36 131.31 53.37 C114.89 53.38 98.47 53.38 82.05 53.37 C72.29 53.37 62.52 53.37 52.76 53.38 C46.24 53.39 39.73 53.38 33.22 53.38 C29.5 53.37 25.78 53.37 22.07 53.38 C18.07 53.39 14.07 53.38 10.08 53.37 C8.91 53.38 7.75 53.38 6.55 53.39 C5.49 53.38 4.43 53.38 3.33 53.37 C1.96 53.38 1.96 53.38 0.56 53.38 C-2.29 53.1 -4.43 52.4 -6.99 51.13 C-8.15 48.44 -8.12 45.78 -8.12 42.88 C-8.12 42.05 -8.13 41.22 -8.13 40.37 C-8.13 39.49 -8.13 38.6 -8.12 37.69 C-8.12 36.77 -8.13 35.85 -8.13 34.91 C-8.13 32.97 -8.13 31.04 -8.12 29.1 C-8.12 26.14 -8.12 23.17 -8.13 20.21 C-8.13 18.33 -8.13 16.45 -8.12 14.56 C-8.13 13.68 -8.13 12.79 -8.13 11.88 C-8.13 11.05 -8.12 10.22 -8.12 9.37 C-8.12 8.65 -8.12 7.92 -8.12 7.17 C-7.98 5.02 -7.69 3.17 -6.99 1.13 C-4.49 -0.13 -2.8 0 0 0 Z " fill="#E47F20" transform="translate(274.9909973144531,959.8746508359909)"/>
<path d="M0 0 C1.94 -0.01 1.94 -0.01 3.93 -0.02 C5.36 -0.02 6.8 -0.02 8.24 -0.02 C9.76 -0.03 11.27 -0.03 12.78 -0.04 C16.89 -0.05 21 -0.06 25.12 -0.06 C27.68 -0.06 30.25 -0.07 32.82 -0.07 C40.84 -0.08 48.87 -0.09 56.9 -0.1 C66.18 -0.1 75.45 -0.12 84.73 -0.15 C91.89 -0.17 99.06 -0.18 106.22 -0.18 C110.5 -0.18 114.79 -0.19 119.07 -0.21 C123.09 -0.22 127.12 -0.23 131.14 -0.22 C132.62 -0.22 134.1 -0.22 135.58 -0.23 C137.6 -0.24 139.61 -0.24 141.63 -0.23 C143.32 -0.23 143.32 -0.23 145.05 -0.23 C147.81 0.14 147.81 0.14 149.7 1.54 C150.81 3.14 150.81 3.14 150.84 5.05 C147.13 20.1 137.77 31.71 124.81 40.14 C100.02 53.97 71.43 58.33 43.81 51.14 C24.91 45.57 6.44 35.55 -5.19 19.14 C-8.05 13.14 -9.4 7.79 -9.19 1.14 C-5.9 0.04 -3.47 0.01 0 0 Z " fill="#7D8B8C" transform="translate(862.18701171875,531.8595581054688)"/>
<path d="M0 0 C1.31 -0 2.61 -0.01 3.96 -0.01 C5.41 -0.01 6.86 -0 8.31 -0 C9.83 -0 11.35 -0.01 12.88 -0.01 C17.02 -0.01 21.16 -0.01 25.31 -0.01 C29.64 -0 33.97 -0.01 38.3 -0.01 C45.57 -0.01 52.84 -0.01 60.11 -0 C68.52 0 76.94 0 85.35 -0.01 C92.57 -0.01 99.79 -0.01 107 -0.01 C111.32 -0.01 115.63 -0.01 119.94 -0.01 C124 -0.01 128.05 -0.01 132.1 -0 C133.6 -0 135.09 -0 136.58 -0.01 C138.61 -0.01 140.63 -0 142.66 0 C144.37 0 144.37 0 146.11 0 C148.77 0.13 148.77 0.13 150.77 1.13 C150.72 13.04 145.69 21.74 137.46 30 C118.33 48.4 92.28 54.64 66.28 54.35 C58.57 54.13 51.26 52.88 43.77 51.13 C42.65 50.87 41.54 50.62 40.39 50.35 C26.63 46.67 14.76 39.15 4.77 29.13 C4.03 28.45 3.29 27.77 2.53 27.06 C-4.31 20.65 -7.41 14.26 -9.23 5.13 C-9.23 3.81 -9.23 2.49 -9.23 1.13 C-5.92 0.02 -3.48 0 0 0 Z " fill="#7D8B8C" transform="translate(275.23170471191406,531.8730163574219)"/>
<path d="M0 0 C18.04 -0.07 36.08 -0.07 54.12 -0.05 C62.41 -0.03 70.69 -0.03 78.97 -0.02 C98.92 -0.01 118.86 0.01 138.8 0.04 C148.25 0.05 157.7 0.06 167.15 0.07 C199.57 0.11 231.99 0.14 264.41 0.19 C265.91 0.19 265.91 0.19 267.44 0.19 C271.49 0.2 275.54 0.2 279.59 0.21 C282.64 0.21 285.68 0.22 288.73 0.22 C289.74 0.22 290.74 0.22 291.78 0.22 C324.59 0.27 357.4 0.3 390.21 0.33 C425.01 0.35 459.81 0.39 494.61 0.44 C498.42 0.45 502.24 0.45 506.05 0.46 C506.99 0.46 507.93 0.46 508.89 0.46 C524 0.48 539.11 0.49 554.21 0.5 C569.35 0.51 584.48 0.53 599.62 0.56 C608.61 0.58 617.6 0.59 626.6 0.58 C632.59 0.58 638.59 0.59 644.59 0.61 C648.01 0.62 651.43 0.63 654.85 0.62 C658.53 0.62 662.2 0.63 665.88 0.65 C666.95 0.64 668.03 0.63 669.13 0.63 C670.11 0.64 671.08 0.64 672.08 0.65 C672.92 0.65 673.77 0.66 674.63 0.66 C677.28 1.12 678.17 1.91 679.78 4.03 C680.14 6.33 680.14 6.33 680.12 9.06 C680.12 10.59 680.12 10.59 680.12 12.15 C680.1 13.25 680.09 14.35 680.07 15.48 C680.07 16.61 680.06 17.74 680.06 18.9 C680.04 22.51 680.01 26.11 679.97 29.72 C679.95 32.16 679.94 34.61 679.93 37.05 C679.89 43.05 679.84 49.04 679.78 55.03 C673.01 58.94 665.22 58.18 657.66 58.16 C655.81 58.16 655.81 58.16 653.91 58.17 C650.47 58.17 647.03 58.17 643.59 58.17 C639.85 58.17 636.11 58.17 632.37 58.17 C625.81 58.18 619.25 58.18 612.69 58.18 C602.93 58.18 593.18 58.18 583.43 58.19 C564.99 58.2 546.56 58.2 528.13 58.2 C513.89 58.2 499.66 58.2 485.43 58.21 C481.34 58.21 477.24 58.21 473.15 58.21 C472.13 58.21 471.11 58.21 470.06 58.21 C441.43 58.22 412.79 58.22 384.16 58.22 C383.08 58.22 382 58.22 380.89 58.22 C375.42 58.22 369.94 58.22 364.47 58.22 C363.38 58.22 362.29 58.22 361.17 58.22 C358.98 58.22 356.78 58.22 354.58 58.22 C320.37 58.22 286.16 58.23 251.94 58.24 C213.52 58.25 175.1 58.26 136.68 58.26 C132.59 58.26 128.49 58.26 124.4 58.26 C123.39 58.26 122.38 58.26 121.34 58.26 C105.1 58.26 88.86 58.27 72.62 58.28 C56.3 58.29 39.98 58.29 23.67 58.28 C13.97 58.28 4.27 58.28 -5.43 58.29 C-11.9 58.29 -18.38 58.29 -24.85 58.29 C-28.55 58.28 -32.24 58.28 -35.93 58.29 C-39.9 58.3 -43.88 58.29 -47.85 58.28 C-49 58.29 -50.15 58.29 -51.33 58.3 C-57.3 58.27 -62.53 57.92 -68.22 56.03 C-70.4 53.34 -70.48 50.83 -70.49 47.44 C-70.5 46.53 -70.51 45.63 -70.52 44.7 C-70.52 43.73 -70.52 42.76 -70.52 41.76 C-70.53 40.75 -70.53 39.75 -70.53 38.72 C-70.54 36.59 -70.54 34.47 -70.54 32.35 C-70.53 29.11 -70.56 25.87 -70.58 22.63 C-70.58 20.57 -70.58 18.51 -70.58 16.44 C-70.59 15.48 -70.6 14.51 -70.61 13.51 C-70.61 12.6 -70.6 11.7 -70.59 10.76 C-70.59 9.97 -70.59 9.17 -70.59 8.35 C-70.06 5.03 -69.51 3.59 -67.22 1.03 C-63.66 0.22 -60.1 0.31 -56.47 0.33 C-55.35 0.31 -54.24 0.3 -53.09 0.28 C-49.35 0.24 -45.62 0.23 -41.88 0.23 C-39.21 0.2 -36.54 0.18 -33.88 0.15 C-26.04 0.08 -18.2 0.06 -10.36 0.04 C-6.91 0.03 -3.45 0.01 0 0 Z M-67.22 4.03 C-68.4 6.76 -68.36 9.52 -68.41 12.46 C-68.43 13.33 -68.45 14.2 -68.46 15.09 C-68.51 19.03 -68.55 22.97 -68.57 26.91 C-68.59 28.99 -68.61 31.07 -68.65 33.15 C-68.71 36.15 -68.73 39.16 -68.74 42.16 C-68.77 43.09 -68.79 44.02 -68.81 44.97 C-68.81 45.84 -68.81 46.71 -68.8 47.6 C-68.81 48.36 -68.82 49.13 -68.83 49.91 C-67.83 53.38 -66.34 54.19 -63.22 56.03 C-59.2 56.64 -55.21 56.57 -51.16 56.53 C-49.29 56.54 -49.29 56.54 -47.39 56.55 C-43.92 56.56 -40.46 56.55 -36.99 56.54 C-33.23 56.52 -29.47 56.53 -25.7 56.54 C-19.1 56.55 -12.5 56.55 -5.9 56.54 C3.92 56.52 13.73 56.52 23.55 56.53 C40.06 56.54 56.58 56.53 73.09 56.52 C89.45 56.5 105.8 56.49 122.16 56.49 C123.69 56.49 123.69 56.49 125.24 56.49 C129.37 56.49 133.49 56.49 137.62 56.49 C176.35 56.49 215.07 56.47 253.8 56.44 C288.23 56.42 322.65 56.4 357.08 56.4 C359.29 56.4 361.5 56.4 363.71 56.4 C364.8 56.4 365.9 56.4 367.02 56.4 C372.52 56.4 378.02 56.4 383.52 56.41 C385.15 56.41 385.15 56.41 386.81 56.41 C415.56 56.41 444.3 56.4 473.04 56.38 C474.06 56.38 475.09 56.38 476.14 56.38 C480.25 56.38 484.36 56.38 488.47 56.38 C502.79 56.37 517.1 56.37 531.42 56.37 C549.87 56.37 568.31 56.36 586.76 56.34 C596.52 56.33 606.28 56.32 616.04 56.33 C622.56 56.33 629.07 56.32 635.58 56.31 C639.3 56.3 643.01 56.3 646.73 56.31 C650.72 56.31 654.72 56.3 658.72 56.29 C659.88 56.29 661.04 56.3 662.24 56.3 C663.3 56.3 664.36 56.29 665.46 56.29 C666.37 56.29 667.29 56.29 668.23 56.28 C671.09 56 673.21 55.3 675.78 54.03 C678.54 49.7 678.05 44.68 678.01 39.72 C678.01 38.82 678.01 37.93 678.01 37.01 C678.01 35.13 678 33.24 677.99 31.36 C677.97 28.48 677.97 25.6 677.97 22.72 C677.96 20.88 677.95 19.05 677.95 17.22 C677.95 15.93 677.95 15.93 677.94 14.61 C677.93 13.4 677.93 13.4 677.93 12.17 C677.92 11.47 677.92 10.76 677.91 10.04 C677.72 6.95 677.72 6.95 676.78 4.03 C673.25 2.28 670.37 1.78 666.46 1.78 C665.4 1.78 664.33 1.77 663.24 1.77 C662.08 1.77 660.91 1.78 659.72 1.78 C658.47 1.78 657.23 1.78 655.95 1.77 C652.48 1.77 649.02 1.77 645.55 1.78 C641.79 1.78 638.03 1.78 634.26 1.77 C627.66 1.76 621.06 1.76 614.46 1.77 C604.64 1.78 594.82 1.77 585.01 1.77 C567.48 1.76 549.95 1.76 532.42 1.76 C517.08 1.77 501.74 1.77 486.4 1.77 C484.87 1.77 484.87 1.77 483.32 1.77 C479.19 1.76 475.07 1.76 470.94 1.76 C432.21 1.76 393.49 1.76 354.76 1.77 C320.33 1.78 285.91 1.78 251.48 1.77 C212.83 1.76 174.17 1.76 135.52 1.76 C131.4 1.76 127.28 1.77 123.16 1.77 C122.15 1.77 121.13 1.77 120.09 1.77 C104.76 1.77 89.42 1.77 74.09 1.76 C56.66 1.76 39.23 1.76 21.8 1.77 C12.04 1.77 2.28 1.77 -7.48 1.77 C-14 1.76 -20.51 1.76 -27.02 1.77 C-30.74 1.78 -34.45 1.78 -38.17 1.77 C-42.16 1.76 -46.16 1.77 -50.16 1.78 C-51.32 1.78 -52.48 1.77 -53.68 1.77 C-54.74 1.77 -55.8 1.78 -56.9 1.78 C-58.27 1.78 -58.27 1.78 -59.67 1.78 C-62.52 2.06 -64.66 2.76 -67.22 4.03 Z " fill="#E79415" transform="translate(335.2201232910156,850.9664354324341)"/>
<path d="M0 0 C1.1 -0.02 2.2 -0.05 3.34 -0.07 C5.39 -0.11 7.44 -0.18 9.49 -0.26 C13.92 -0.34 17.05 -0.31 20.63 2.46 C23.74 6 23.9 8.86 23.86 13.37 C23.88 14.16 23.9 14.95 23.91 15.76 C23.96 18.28 23.96 20.79 23.96 23.3 C23.99 24.97 24.02 26.64 24.05 28.3 C24.41 51.37 24.41 51.37 20.96 55.87 C20 56.51 20 56.51 19.02 57.18 C18.36 56.85 17.7 56.52 17.02 56.18 C18.51 55.68 18.51 55.68 20.02 55.18 C20.05 48.7 20.07 42.22 20.08 35.74 C20.08 33.54 20.09 31.34 20.1 29.13 C20.11 25.97 20.12 22.8 20.12 19.63 C20.13 18.65 20.13 17.66 20.14 16.64 C20.14 15.72 20.14 14.8 20.14 13.85 C20.14 12.64 20.14 12.64 20.14 11.41 C20.03 9.2 19.63 7.29 19.02 5.18 C15.88 4.25 13.07 4.05 9.8 4.05 C8.74 4.05 7.67 4.04 6.58 4.04 C5.41 4.04 4.23 4.04 3.03 4.05 C1.15 4.04 1.15 4.04 -0.76 4.04 C-4.24 4.03 -7.72 4.04 -11.2 4.04 C-14.98 4.04 -18.77 4.03 -22.55 4.03 C-30.06 4.02 -37.57 4.02 -45.08 4.02 C-54.07 4.02 -63.06 4.01 -72.05 4 C-93.77 3.99 -115.5 3.98 -137.23 3.98 C-147.5 3.97 -157.78 3.97 -168.05 3.97 C-203.19 3.95 -238.34 3.94 -273.48 3.94 C-275.69 3.94 -277.89 3.94 -280.1 3.94 C-282.31 3.94 -284.52 3.94 -286.74 3.94 C-291.17 3.94 -295.61 3.94 -300.05 3.94 C-301.15 3.94 -302.25 3.94 -303.38 3.94 C-339.09 3.93 -374.79 3.92 -410.5 3.89 C-448.22 3.87 -485.95 3.86 -523.67 3.85 C-527.81 3.85 -531.95 3.85 -536.08 3.85 C-537.1 3.85 -538.12 3.85 -539.17 3.85 C-555.6 3.85 -572.03 3.84 -588.45 3.83 C-604.95 3.81 -621.44 3.81 -637.93 3.82 C-647.75 3.82 -657.56 3.82 -667.37 3.8 C-673.91 3.79 -680.45 3.79 -686.99 3.8 C-690.73 3.81 -694.46 3.81 -698.2 3.8 C-702.21 3.78 -706.22 3.79 -710.23 3.81 C-712 3.79 -712 3.79 -713.79 3.78 C-715.38 3.79 -715.38 3.79 -717.01 3.8 C-717.93 3.8 -718.84 3.8 -719.79 3.8 C-720.51 3.93 -721.23 4.05 -721.98 4.18 C-724.12 7.4 -724.22 8.22 -724.2 11.92 C-724.2 12.89 -724.2 13.85 -724.2 14.84 C-724.19 15.87 -724.18 16.9 -724.17 17.97 C-724.17 19.03 -724.17 20.09 -724.16 21.19 C-724.15 24.58 -724.13 27.97 -724.1 31.37 C-724.09 33.66 -724.08 35.96 -724.07 38.26 C-724.05 43.9 -724.02 49.54 -723.98 55.18 C-722.66 55.84 -721.34 56.5 -719.98 57.18 C-722.35 56.87 -722.35 56.87 -724.98 56.18 C-727.11 52.98 -727.23 52.15 -727.23 48.48 C-727.24 47.53 -727.25 46.58 -727.25 45.6 C-727.25 44.57 -727.25 43.55 -727.24 42.49 C-727.24 41.44 -727.25 40.38 -727.25 39.3 C-727.25 37.07 -727.25 34.84 -727.24 32.61 C-727.23 29.19 -727.24 25.77 -727.25 22.36 C-727.25 20.19 -727.25 18.03 -727.24 15.87 C-727.25 14.84 -727.25 13.82 -727.25 12.76 C-727.25 11.81 -727.24 10.86 -727.23 9.88 C-727.23 9.04 -727.23 8.2 -727.23 7.34 C-726.98 5.18 -726.98 5.18 -724.98 2.18 C-722.03 1.19 -720.12 1.05 -717.05 1.05 C-716.02 1.04 -715 1.04 -713.94 1.04 C-712.81 1.04 -711.67 1.04 -710.51 1.04 C-709.3 1.04 -708.1 1.03 -706.86 1.03 C-703.5 1.02 -700.14 1.02 -696.78 1.02 C-693.13 1.02 -689.48 1.01 -685.83 1 C-679.42 0.99 -673.02 0.99 -666.62 0.98 C-657.09 0.97 -647.57 0.96 -638.05 0.95 C-622.02 0.92 -606 0.9 -589.98 0.89 C-574.09 0.87 -558.2 0.85 -542.32 0.83 C-541.33 0.83 -540.34 0.83 -539.32 0.83 C-534.31 0.82 -529.29 0.81 -524.28 0.81 C-488.71 0.76 -453.15 0.72 -417.59 0.67 C-383.09 0.64 -348.6 0.59 -314.1 0.55 C-313.04 0.55 -311.98 0.55 -310.89 0.55 C-301.29 0.53 -291.69 0.52 -282.09 0.51 C-259.26 0.48 -236.42 0.45 -213.59 0.42 C-212.58 0.42 -211.58 0.42 -210.55 0.42 C-168.06 0.36 -125.57 0.31 -83.08 0.26 C-77.09 0.26 -71.11 0.25 -65.12 0.24 C-57.95 0.23 -50.78 0.22 -43.61 0.22 C-40.01 0.21 -36.41 0.21 -32.8 0.2 C-32.13 0.2 -31.46 0.2 -30.77 0.2 C-28.8 0.2 -26.84 0.2 -24.87 0.19 C-22.39 0.19 -19.91 0.19 -17.44 0.2 C-11.62 0.21 -5.81 0.16 0 0 Z " fill="#E79415" transform="translate(991.9760538339615,743.822319149971)"/>
<path d="M0 0 C1.74 0.07 1.74 0.07 3.52 0.14 C7.11 0.87 8.87 2.21 11.48 4.74 C12.13 6.68 12.13 6.68 12.17 8.71 C12.19 9.48 12.22 10.25 12.25 11.04 C12.25 11.86 12.25 12.69 12.25 13.53 C12.27 14.39 12.29 15.25 12.31 16.13 C12.35 17.95 12.38 19.77 12.39 21.59 C12.41 24.34 12.47 27.09 12.54 29.84 C12.92 49.03 12.92 49.03 10.48 54.74 C7.85 56.37 7.85 56.37 5.48 56.74 C5.81 56.08 6.14 55.42 6.48 54.74 C7.14 54.74 7.8 54.74 8.48 54.74 C8.5 48.27 8.52 41.79 8.53 35.31 C8.54 33.11 8.54 30.9 8.55 28.7 C8.56 25.53 8.57 22.36 8.57 19.2 C8.58 18.21 8.58 17.23 8.59 16.21 C8.59 15.29 8.59 14.37 8.59 13.42 C8.59 12.21 8.59 12.21 8.6 10.97 C8.48 8.77 8.09 6.86 7.48 4.74 C4.33 3.82 1.52 3.62 -1.74 3.62 C-2.81 3.61 -3.87 3.61 -4.97 3.61 C-6.14 3.61 -7.31 3.61 -8.52 3.61 C-10.39 3.61 -10.39 3.61 -12.3 3.61 C-15.79 3.6 -19.27 3.6 -22.75 3.6 C-26.53 3.6 -30.32 3.6 -34.1 3.59 C-41.61 3.59 -49.11 3.59 -56.62 3.58 C-65.61 3.58 -74.6 3.58 -83.59 3.57 C-105.32 3.55 -127.05 3.55 -148.78 3.54 C-159.05 3.54 -169.32 3.54 -179.6 3.53 C-214.74 3.52 -249.88 3.51 -285.03 3.51 C-287.23 3.51 -289.44 3.51 -291.65 3.51 C-293.86 3.51 -296.07 3.51 -298.28 3.51 C-302.72 3.51 -307.16 3.5 -311.6 3.5 C-312.7 3.5 -313.8 3.5 -314.93 3.5 C-350.64 3.5 -386.34 3.48 -422.05 3.46 C-459.77 3.44 -497.5 3.42 -535.22 3.42 C-539.36 3.42 -543.5 3.42 -547.63 3.42 C-548.65 3.42 -549.67 3.42 -550.72 3.42 C-567.15 3.42 -583.57 3.41 -600 3.39 C-616.5 3.38 -632.99 3.38 -649.48 3.38 C-659.29 3.39 -669.1 3.38 -678.92 3.37 C-685.46 3.36 -692 3.36 -698.54 3.37 C-702.28 3.38 -706.01 3.38 -709.75 3.36 C-713.76 3.35 -717.77 3.36 -721.78 3.37 C-723.54 3.36 -723.54 3.36 -725.34 3.35 C-726.93 3.36 -726.93 3.36 -728.55 3.37 C-729.47 3.37 -730.39 3.37 -731.34 3.37 C-732.06 3.49 -732.78 3.62 -733.52 3.74 C-735.67 6.97 -735.77 7.79 -735.75 11.49 C-735.75 12.45 -735.75 13.41 -735.75 14.4 C-735.74 15.44 -735.73 16.47 -735.72 17.54 C-735.72 18.6 -735.71 19.66 -735.71 20.75 C-735.7 24.15 -735.67 27.54 -735.65 30.93 C-735.64 33.23 -735.63 35.53 -735.62 37.83 C-735.6 43.47 -735.57 49.11 -735.52 54.74 C-734.2 55.4 -732.88 56.06 -731.52 56.74 C-733.9 56.43 -733.9 56.43 -736.52 55.74 C-738.66 52.54 -738.78 51.72 -738.78 48.05 C-738.79 47.09 -738.8 46.14 -738.8 45.16 C-738.8 44.14 -738.79 43.11 -738.79 42.06 C-738.79 41 -738.79 39.95 -738.8 38.86 C-738.8 36.63 -738.79 34.4 -738.79 32.18 C-738.77 28.76 -738.78 25.34 -738.8 21.92 C-738.8 19.76 -738.79 17.6 -738.79 15.43 C-738.79 14.41 -738.8 13.38 -738.8 12.33 C-738.8 11.37 -738.79 10.42 -738.78 9.44 C-738.78 8.61 -738.78 7.77 -738.78 6.91 C-738.52 4.74 -738.52 4.74 -736.52 1.74 C-733.56 0.75 -731.62 0.62 -728.53 0.61 C-727.49 0.61 -726.45 0.6 -725.38 0.6 C-723.65 0.6 -723.65 0.6 -721.89 0.6 C-720.67 0.6 -719.45 0.6 -718.19 0.59 C-714.78 0.59 -711.37 0.58 -707.96 0.58 C-704.26 0.58 -700.56 0.57 -696.85 0.56 C-690.36 0.55 -683.86 0.54 -677.36 0.53 C-667.7 0.52 -658.04 0.51 -648.38 0.49 C-631.12 0.46 -613.87 0.44 -596.61 0.42 C-581.5 0.4 -566.39 0.38 -551.28 0.36 C-550.28 0.36 -549.28 0.36 -548.25 0.35 C-544.19 0.35 -540.12 0.34 -536.06 0.34 C-497.9 0.28 -459.74 0.23 -421.58 0.18 C-387.68 0.14 -353.79 0.09 -319.89 0.04 C-281.82 -0.02 -243.76 -0.07 -205.69 -0.12 C-201.63 -0.13 -197.57 -0.13 -193.51 -0.14 C-192.51 -0.14 -191.51 -0.14 -190.48 -0.14 C-175.39 -0.16 -160.3 -0.18 -145.21 -0.21 C-128.04 -0.23 -110.87 -0.26 -93.69 -0.27 C-84.09 -0.29 -74.48 -0.3 -64.88 -0.32 C-58.45 -0.33 -52.03 -0.33 -45.61 -0.34 C-41.95 -0.34 -38.3 -0.35 -34.64 -0.35 C-9.78 -0.41 -9.78 -0.41 0 0 Z " fill="#E79415" transform="translate(1003.5243577957153,1064.255563735962)"/>
<path d="M0 0 C0.99 0.33 1.98 0.66 3 1 C2.01 1.33 1.02 1.66 0 2 C-0.03 8.48 -0.04 14.96 -0.05 21.43 C-0.06 23.64 -0.07 25.84 -0.08 28.04 C-0.09 31.21 -0.09 34.38 -0.1 37.55 C-0.1 38.53 -0.11 39.52 -0.11 40.53 C-0.11 41.91 -0.11 41.91 -0.11 43.32 C-0.12 44.13 -0.12 44.94 -0.12 45.77 C-0 47.97 0.39 49.89 1 52 C4.13 52.92 6.94 53.13 10.2 53.13 C11.26 53.13 12.32 53.13 13.41 53.13 C15.16 53.13 15.16 53.13 16.94 53.13 C18.81 53.13 18.81 53.13 20.71 53.13 C24.18 53.13 27.64 53.13 31.11 53.13 C34.87 53.13 38.64 53.13 42.4 53.13 C49.01 53.14 55.61 53.14 62.22 53.13 C72.04 53.13 81.86 53.13 91.68 53.13 C109.21 53.14 126.75 53.14 144.29 53.14 C159.63 53.13 174.98 53.13 190.33 53.13 C191.34 53.13 192.36 53.13 193.41 53.13 C197.53 53.13 201.66 53.13 205.79 53.14 C244.52 53.14 283.26 53.14 322 53.13 C356.44 53.13 390.88 53.13 425.32 53.13 C463.98 53.14 502.65 53.14 541.32 53.13 C545.44 53.13 549.56 53.13 553.67 53.13 C554.69 53.13 555.7 53.13 556.75 53.13 C572.09 53.13 587.43 53.13 602.77 53.14 C620.2 53.14 637.64 53.14 655.07 53.13 C664.84 53.13 674.6 53.13 684.37 53.13 C690.89 53.14 697.4 53.13 703.92 53.13 C707.63 53.13 711.35 53.13 715.07 53.13 C719.06 53.13 723.06 53.13 727.06 53.13 C728.22 53.13 729.39 53.13 730.59 53.13 C731.65 53.13 732.71 53.13 733.8 53.13 C734.72 53.13 735.63 53.13 736.57 53.13 C738.86 53.01 740.81 52.64 743 52 C743.88 45.96 744.13 40.13 744.1 34.03 C744.1 33.11 744.09 32.19 744.09 31.24 C744.09 28.33 744.08 25.41 744.06 22.5 C744.06 20.51 744.05 18.53 744.05 16.54 C744.04 11.69 744.02 6.85 744 2 C743.01 1.67 742.02 1.34 741 1 C741.66 0.67 742.32 0.34 743 0 C745.45 1.71 746.83 3.13 747.42 6.11 C747.63 8.84 747.71 11.54 747.75 14.28 C747.78 15.28 747.8 16.28 747.83 17.32 C747.88 19.44 747.92 21.56 747.95 23.68 C748 26.92 748.09 30.16 748.19 33.4 C748.23 35.47 748.27 37.53 748.31 39.59 C748.34 40.56 748.37 41.53 748.4 42.52 C748.44 46.88 748.43 49.3 746.11 53.09 C742.93 55.97 741.2 56.13 737.01 56.13 C735.95 56.13 734.88 56.14 733.79 56.14 C732.02 56.14 732.02 56.14 730.21 56.14 C728.96 56.14 727.71 56.14 726.42 56.15 C722.93 56.15 719.43 56.15 715.93 56.15 C712.14 56.15 708.34 56.16 704.55 56.17 C697.01 56.18 689.47 56.18 681.94 56.19 C672.91 56.19 663.89 56.2 654.86 56.21 C633.05 56.24 611.24 56.26 589.43 56.27 C582.21 56.27 574.98 56.28 567.76 56.28 C529.39 56.31 491.02 56.33 452.64 56.34 C443.75 56.34 434.86 56.35 425.96 56.35 C424.86 56.35 423.75 56.35 422.61 56.35 C386.77 56.36 350.93 56.39 315.08 56.44 C278.26 56.48 241.43 56.51 204.6 56.51 C199.41 56.51 194.21 56.51 189.01 56.51 C187.48 56.51 187.48 56.51 185.91 56.51 C169.42 56.52 152.93 56.54 136.45 56.56 C119.88 56.59 103.32 56.6 86.76 56.59 C76.91 56.58 67.07 56.59 57.22 56.62 C50.65 56.63 44.08 56.63 37.51 56.62 C33.76 56.61 30.01 56.61 26.26 56.63 C22.23 56.65 18.2 56.64 14.17 56.62 C12.99 56.63 11.82 56.64 10.61 56.66 C1.88 56.56 1.88 56.56 -1.22 53.61 C-3.12 50.82 -3.62 49.52 -3.62 46.18 C-3.62 45.25 -3.63 44.33 -3.64 43.37 C-3.62 41.89 -3.62 41.89 -3.59 40.37 C-3.59 39.34 -3.59 38.32 -3.59 37.26 C-3.59 35.09 -3.57 32.93 -3.54 30.76 C-3.5 27.45 -3.5 24.13 -3.51 20.81 C-3.5 18.71 -3.48 16.6 -3.47 14.5 C-3.47 13.5 -3.47 12.51 -3.47 11.49 C-3.45 10.57 -3.44 9.64 -3.42 8.69 C-3.41 7.88 -3.4 7.07 -3.39 6.23 C-2.91 3.5 -1.79 2.08 0 0 Z " fill="#E79415" transform="translate(268,959)"/>
<path d="M0 0 C0.33 0 0.66 0 1 0 C1 0.88 1.01 1.75 1.01 2.65 C1.12 23.92 1.22 45.18 1.34 66.44 C1.39 76.73 1.45 87.01 1.5 97.29 C1.54 106.25 1.59 115.21 1.64 124.17 C1.66 128.92 1.69 133.66 1.71 138.41 C1.73 142.87 1.75 147.34 1.78 151.8 C1.79 153.44 1.8 155.08 1.8 156.73 C1.81 158.96 1.83 161.19 1.84 163.43 C1.85 164.68 1.85 165.93 1.86 167.22 C1.68 169.91 1.68 169.91 3 171 C3.1 173.39 3.14 175.76 3.14 178.15 C3.14 178.91 3.14 179.67 3.15 180.46 C3.16 183.04 3.16 185.62 3.16 188.2 C3.16 190.06 3.17 191.92 3.17 193.78 C3.19 198.9 3.19 204.03 3.2 209.16 C3.21 214.68 3.22 220.2 3.24 225.72 C3.26 235.3 3.28 244.87 3.29 254.44 C3.31 268.29 3.34 282.13 3.37 295.97 C3.42 318.43 3.46 340.88 3.5 363.34 C3.54 385.16 3.58 406.97 3.63 428.79 C3.63 429.47 3.63 430.14 3.63 430.83 C3.65 437.58 3.66 444.33 3.67 451.08 C3.79 507.72 3.9 564.36 4 621 C3.01 621 2.02 621 1 621 C0.15 614.4 -0.14 607.98 -0.12 601.33 C-0.12 600.29 -0.13 599.25 -0.13 598.17 C-0.13 594.68 -0.12 591.18 -0.12 587.68 C-0.12 585.15 -0.12 582.62 -0.12 580.09 C-0.12 574.58 -0.12 569.08 -0.12 563.57 C-0.11 555.39 -0.11 547.2 -0.11 539.02 C-0.12 525.25 -0.11 511.48 -0.11 497.71 C-0.1 484.08 -0.1 470.44 -0.09 456.81 C-0.09 455.96 -0.09 455.12 -0.09 454.24 C-0.09 449.94 -0.09 445.63 -0.09 441.32 C-0.09 410.83 -0.08 380.34 -0.08 349.85 C-0.07 320.22 -0.06 290.6 -0.05 260.98 C-0.05 260.07 -0.05 259.15 -0.05 258.21 C-0.05 249.04 -0.05 239.87 -0.05 230.7 C-0.05 212.02 -0.05 193.34 -0.04 174.66 C-0.04 173.8 -0.04 172.94 -0.04 172.05 C-0.03 114.7 -0.02 57.35 0 0 Z " fill="#8C670B" transform="translate(159,574)"/>
<path d="M0 0 C0.33 0 0.66 0 1 0 C1 201.96 1 403.92 1 612 C0.67 612 0.34 612 0 612 C0 410.04 0 208.08 0 0 Z " fill="#000100" transform="translate(1120,574)"/>
<path d="M0 0 C0.94 -0 1.87 -0 2.84 -0 C4.81 -0 6.79 -0 8.76 0 C11.74 0.01 14.73 0 17.71 -0 C40.31 -0.01 40.31 -0.01 46.02 1.13 C47.01 2.12 47.01 2.12 48.02 3.13 C25.58 3.13 3.14 3.13 -19.98 3.13 C-15.5 -1.36 -6.05 -0.01 0 0 Z " fill="#D5DBDE" transform="translate(625.984375,51.8671875)"/>
<path d="M0 0 C0.66 0.33 1.32 0.66 2 1 C-10.21 13.21 -22.42 25.42 -35 38 C-35 31.98 -30.01 27.76 -25.97 23.71 C-25.5 23.23 -25.03 22.76 -24.55 22.27 C-23.56 21.28 -22.57 20.3 -21.57 19.31 C-20.06 17.81 -18.56 16.3 -17.06 14.79 C-16.1 13.82 -15.13 12.86 -14.16 11.89 C-13.29 11.03 -12.42 10.16 -11.52 9.26 C-9.13 7.11 -6.78 5.6 -4 4 C-2.63 2.7 -1.28 1.38 0 0 Z " fill="#C5CACA" transform="translate(393,144)"/>
<path d="M0 0 C0.33 0 0.66 0 1 0 C1.95 16.08 1.95 31.92 1 48 C0.67 48 0.34 48 0 48 C-0.33 43.38 -0.66 38.76 -1 34 C-1.33 34 -1.66 34 -2 34 C-2.03 32.35 -2.05 30.71 -2.06 29.06 C-2.07 28.15 -2.09 27.23 -2.1 26.29 C-2 24 -2 24 -1 23 C-0.84 21.29 -0.75 19.58 -0.68 17.87 C-0.64 16.84 -0.6 15.8 -0.56 14.74 C-0.52 13.65 -0.48 12.56 -0.44 11.44 C-0.37 9.8 -0.37 9.8 -0.31 8.13 C-0.2 5.42 -0.1 2.71 0 0 Z " fill="#646F6F" transform="translate(267,379)"/>
<path d="M0 0 C0 3 0 3 -2 6 C-2 6.66 -2 7.32 -2 8 C-2.66 8 -3.32 8 -4 8 C-3.5 4.31 -2.9 2.4 0 0 Z M-5 8 C-4.34 8.33 -3.68 8.66 -3 9 C-3 9.66 -3 10.32 -3 11 C-3.66 11.66 -4.32 12.32 -5 13 C-6.55 15.06 -8.05 17.14 -9.56 19.22 C-11 21 -11 21 -13 22 C-12.67 21.01 -12.34 20.02 -12 19 C-12.66 18.34 -13.32 17.68 -14 17 C-11.03 14.03 -8.06 11.06 -5 8 Z " fill="#ABB3B3" transform="translate(359,176)"/>
<path d="M0 0 C0.33 0 0.66 0 1 0 C1 1.65 1 3.3 1 5 C1.66 5 2.32 5 3 5 C3 9.95 3 14.9 3 20 C2.01 20 1.02 20 0 20 C0 13.4 0 6.8 0 0 Z " fill="#EFB613" transform="translate(160,1175)"/>
<path d="M0 0 C-1.98 0.99 -1.98 0.99 -4 2 C-3.34 2.66 -2.68 3.32 -2 4 C-8.93 4 -15.86 4 -23 4 C-23 3.67 -23 3.34 -23 3 C-21.95 2.87 -20.9 2.73 -19.82 2.6 C-18.45 2.42 -17.07 2.24 -15.69 2.06 C-14.65 1.93 -14.65 1.93 -13.6 1.8 C-8.91 1.19 -4.74 -0.13 0 0 Z " fill="#8A9292" transform="translate(581,57)"/>
<path d="M0 0 C4.74 0.95 9.55 2.55 13 6 C8.04 6.29 4.96 6.15 1 3 C0.67 2.01 0.34 1.02 0 0 Z " fill="#9BA6A6" transform="translate(769,75)"/>
<path d="M0 0 C1.02 0.22 1.02 0.22 2.06 0.44 C1.34 0.99 0.62 1.55 -0.12 2.12 C-2.91 4.42 -5.42 6.85 -7.94 9.44 C-8.6 8.78 -9.26 8.12 -9.94 7.44 C-3.86 0.58 -3.86 0.58 0 0 Z " fill="#CBD4D6" transform="translate(409.9375,130.5625)"/>
<path d="M0 0 C-2.31 2.64 -4.62 5.28 -7 8 C-7 7.01 -7 6.02 -7 5 C-7.66 4.34 -8.32 3.68 -9 3 C-6.38 -0.01 -3.87 -1.93 0 0 Z " fill="#9EA9AA" transform="translate(354,190)"/>
<path d="M0 0 C4.95 0 9.9 0 15 0 C15 0.33 15 0.66 15 1 C10.05 1 5.1 1 0 1 C0 0.67 0 0.34 0 0 Z " fill="#000100" transform="translate(649,215)"/>
<path d="M0 0 C4.95 0 9.9 0 15 0 C15 0.33 15 0.66 15 1 C10.05 1 5.1 1 0 1 C0 0.67 0 0.34 0 0 Z " fill="#000100" transform="translate(616,215)"/>
<path d="M0 0 C0.66 0.66 1.32 1.32 2 2 C0.02 2.99 0.02 2.99 -2 4 C-1.34 2.68 -0.68 1.36 0 0 Z " fill="#E2EAEC" transform="translate(490,274)"/>
<path d="M0 0 C0.66 0.33 1.32 0.66 2 1 C1.67 1.66 1.34 2.32 1 3 C0.34 2.67 -0.32 2.34 -1 2 C-0.67 1.34 -0.34 0.68 0 0 Z " fill="#E4EBEE" transform="translate(460,312)"/>
<path d="M0 0 C1.65 0 3.3 0 5 0 C5 0.33 5 0.66 5 1 C3.35 1 1.7 1 0 1 C0 0.67 0 0.34 0 0 Z " fill="#000100" transform="translate(687,220)"/>
<path d="M0 0 C1.65 0 3.3 0 5 0 C5 0.33 5 0.66 5 1 C3.35 1 1.7 1 0 1 C0 0.67 0 0.34 0 0 Z " fill="#000100" transform="translate(588,220)"/>
<path d="M0 0 C1 4 1 4 1 4 Z " fill="#000100" transform="translate(1012,382)"/>
<path d="M0 0 C1 4 1 4 1 4 Z " fill="#000100" transform="translate(435,370)"/>
<path d="" fill="#000100" transform="translate(0,0)"/>
<path d="" fill="#000100" transform="translate(0,0)"/>
<path d="" fill="#000100" transform="translate(0,0)"/>
<path d="" fill="#000100" transform="translate(0,0)"/>
<path d="M0 0 C3 1 3 1 3 1 Z " fill="#000100" transform="translate(744,242)"/>
<path d="M0 0 C3 1 3 1 3 1 Z " fill="#000100" transform="translate(582,222)"/>
<path d="" fill="#000100" transform="translate(0,0)"/>
<path d="" fill="#000100" transform="translate(0,0)"/>
<path d="" fill="#000100" transform="translate(0,0)"/>
<path d="" fill="#000100" transform="translate(0,0)"/>
<path d="" fill="#000100" transform="translate(0,0)"/>
<path d="M0 0 C2 1 2 1 2 1 Z " fill="#000100" transform="translate(752,247)"/>
<path d="M0 0 C2 1 2 1 2 1 Z " fill="#000100" transform="translate(526,247)"/>
<path d="" fill="#EFF6F9" transform="translate(0,0)"/>
<path d="M0 0 C2 1 2 1 2 1 Z " fill="#000100" transform="translate(741,240)"/>
<path d="M0 0 C2 1 2 1 2 1 Z " fill="#000100" transform="translate(553,232)"/>
<path d="M0 0 C2 1 2 1 2 1 Z " fill="#000100" transform="translate(719,230)"/>
<path d="M0 0 C2 1 2 1 2 1 Z " fill="#000100" transform="translate(559,230)"/>
<path d="M0 0 C2 1 2 1 2 1 Z " fill="#000100" transform="translate(711,227)"/>
<path d="M0 0 C2 1 2 1 2 1 Z " fill="#000100" transform="translate(567,227)"/>
<path d="" fill="#000100" transform="translate(0,0)"/>
<path d="" fill="#463F34" transform="translate(0,0)"/>
<path d="" fill="#F1C414" transform="translate(0,0)"/>
<path d="" fill="#000100" transform="translate(0,0)"/>
<path d="" fill="#000100" transform="translate(0,0)"/>
<path d="" fill="#000100" transform="translate(0,0)"/>
<path d="" fill="#463F34" transform="translate(0,0)"/>
<path d="" fill="#000100" transform="translate(0,0)"/>
<path d="" fill="#000100" transform="translate(0,0)"/>
<path d="" fill="#000100" transform="translate(0,0)"/>
<path d="" fill="#000100" transform="translate(0,0)"/>
<path d="" fill="#EFF6F9" transform="translate(0,0)"/>
<path d="" fill="#000100" transform="translate(0,0)"/>
<path d="" fill="#000100" transform="translate(0,0)"/>
<path d="" fill="#000100" transform="translate(0,0)"/>
<path d="" fill="#000100" transform="translate(0,0)"/>
<path d="" fill="#000100" transform="translate(0,0)"/>
<path d="" fill="#463F34" transform="translate(0,0)"/>
<path d="" fill="#000100" transform="translate(0,0)"/>
<path d="" fill="#000100" transform="translate(0,0)"/>
<path d="" fill="#EFF6F9" transform="translate(0,0)"/>
<path d="" fill="#000100" transform="translate(0,0)"/>
<path d="" fill="#000100" transform="translate(0,0)"/>
<path d="" fill="#000100" transform="translate(0,0)"/>
<path d="" fill="#B9C3C4" transform="translate(0,0)"/>
<path d="" fill="#000100" transform="translate(0,0)"/>
<path d="" fill="#000100" transform="translate(0,0)"/>
<path d="" fill="#463F34" transform="translate(0,0)"/>
<path d="" fill="#000100" transform="translate(0,0)"/>
<path d="" fill="#000100" transform="translate(0,0)"/>
<path d="" fill="#000100" transform="translate(0,0)"/>
<path d="" fill="#000100" transform="translate(0,0)"/>
<path d="" fill="#000100" transform="translate(0,0)"/>
<path d="" fill="#000100" transform="translate(0,0)"/>
<path d="" fill="#000100" transform="translate(0,0)"/>
<path d="" fill="#B9C3C4" transform="translate(0,0)"/>
<path d="" fill="#000100" transform="translate(0,0)"/>
<path d="" fill="#000100" transform="translate(0,0)"/>
<path d="" fill="#000100" transform="translate(0,0)"/>
</svg>
